<?xml version="1.0" encoding="iso-8859-1"?>
<!-- Generator: Adobe Illustrator 16.0.0, SVG Export Plug-In . SVG Version: 6.00 Build 0)  -->
<!DOCTYPE svg PUBLIC "-//W3C//DTD SVG 1.1//EN" "http://www.w3.org/Graphics/SVG/1.1/DTD/svg11.dtd">
<svg version="1.1" xmlns="http://www.w3.org/2000/svg" xmlns:xlink="http://www.w3.org/1999/xlink" x="0px" y="0px" width="353px"
	 height="326px" viewBox="0 0 353 326" style="enable-background:new 0 0 353 326;" xml:space="preserve">
<g id="&#x5E95;&#x8272;">
	<radialGradient id="SVGID_1_" cx="176.5" cy="163" r="169.8842" gradientUnits="userSpaceOnUse">
		<stop  offset="0" style="stop-color:#FFFFFF;stop-opacity:0"/>
		<stop  offset="0.1071" style="stop-color:#E4E4E4;stop-opacity:0.0857"/>
		<stop  offset="0.249" style="stop-color:#C7C7C7;stop-opacity:0.1992"/>
		<stop  offset="0.4006" style="stop-color:#B0B0B0;stop-opacity:0.3205"/>
		<stop  offset="0.5645" style="stop-color:#A0A0A0;stop-opacity:0.4516"/>
		<stop  offset="0.7495" style="stop-color:#979797;stop-opacity:0.5996"/>
		<stop  offset="1" style="stop-color:#949494;stop-opacity:0.8"/>
	</radialGradient>
	<rect style="opacity:0.5;fill:url(#SVGID_1_);" width="353" height="326"/>
</g>
<g id="logo">
	<g>
		<g>
			<path style="fill:#CC9C2A;" d="M90.104,248.857l7.163-0.018c0.065,0.348,0.103,0.693,0.103,1.062
				c0,0.388-0.036,0.755-0.103,1.107l-4.595,0.018l0.007,2.965l3.649-0.008c0.073,0.374,0.104,0.734,0.104,1.079
				c0,0.377-0.029,0.757-0.095,1.11l-3.652,0.013l0.014,5.28c-0.443,0.064-0.863,0.104-1.267,0.104
				c-0.431,0-0.856-0.031-1.295-0.098L90.104,248.857z"/>
			<path style="fill:#CC9C2A;" d="M104.105,248.819c0.219-0.043,0.436-0.069,0.646-0.069c0.212-0.018,0.431-0.025,0.652-0.025
				c0.194,0,0.402,0,0.61,0.014c0.215,0.012,0.426,0.038,0.654,0.066l0.017,6.553c0,0.703,0.03,1.322,0.084,1.83
				c0.057,0.516,0.16,0.928,0.322,1.27c0.157,0.334,0.385,0.569,0.667,0.725c0.285,0.165,0.659,0.239,1.12,0.239
				c0.452,0,0.824-0.087,1.103-0.253c0.273-0.145,0.499-0.396,0.655-0.723c0.16-0.342,0.262-0.76,0.313-1.267
				c0.047-0.513,0.076-1.119,0.067-1.831l-0.013-6.557c0.234-0.033,0.452-0.059,0.665-0.066c0.21-0.009,0.418-0.02,0.613-0.02
				c0.214,0,0.424,0,0.642,0.02c0.218,0.008,0.436,0.025,0.664,0.061l0.017,7.09c0,0.854-0.067,1.645-0.208,2.353
				c-0.139,0.7-0.39,1.31-0.748,1.812c-0.361,0.506-0.843,0.903-1.455,1.174c-0.602,0.275-1.379,0.412-2.315,0.416
				c-0.937,0.002-1.707-0.133-2.314-0.402c-0.609-0.277-1.098-0.666-1.46-1.16c-0.364-0.507-0.618-1.117-0.763-1.824
				c-0.139-0.713-0.216-1.48-0.216-2.34L104.105,248.819z"/>
			<path style="fill:#CC9C2A;" d="M132.481,255.51c-0.402-0.152-0.753-0.318-1.072-0.497c-0.319-0.188-0.585-0.396-0.815-0.651
				c-0.218-0.252-0.39-0.555-0.514-0.893c-0.127-0.354-0.186-0.78-0.186-1.273c0-0.593,0.094-1.125,0.3-1.583
				c0.204-0.44,0.491-0.832,0.87-1.144c0.368-0.312,0.825-0.547,1.345-0.704c0.523-0.163,1.113-0.237,1.774-0.255
				c0.59,0,1.148,0.059,1.672,0.162c0.523,0.104,1.072,0.25,1.642,0.451c-0.07,0.68-0.252,1.342-0.555,2.004
				c-0.176-0.072-0.357-0.139-0.536-0.211c-0.178-0.065-0.375-0.123-0.583-0.17c-0.2-0.041-0.434-0.089-0.69-0.112
				c-0.255-0.027-0.551-0.044-0.878-0.044c-0.199,0-0.396,0.022-0.61,0.051c-0.195,0.046-0.382,0.105-0.545,0.195
				c-0.164,0.099-0.298,0.234-0.402,0.416c-0.111,0.188-0.157,0.421-0.157,0.72c0,0.224,0.043,0.425,0.126,0.571
				c0.077,0.159,0.19,0.299,0.335,0.409c0.137,0.113,0.294,0.206,0.47,0.277c0.172,0.077,0.35,0.152,0.525,0.229l1.059,0.394
				c0.441,0.174,0.849,0.352,1.207,0.551c0.372,0.178,0.673,0.397,0.928,0.68c0.251,0.275,0.45,0.613,0.59,1.002
				c0.143,0.393,0.214,0.875,0.214,1.445c0.004,0.592-0.103,1.14-0.32,1.631c-0.213,0.501-0.526,0.906-0.933,1.268
				c-0.41,0.353-0.919,0.633-1.517,0.829c-0.602,0.198-1.292,0.299-2.078,0.299c-0.386,0-0.733,0-1.033-0.024
				c-0.306-0.024-0.6-0.064-0.872-0.115c-0.271-0.05-0.546-0.113-0.813-0.203c-0.272-0.081-0.55-0.17-0.849-0.291
				c0.04-0.34,0.102-0.684,0.188-1.059c0.093-0.368,0.206-0.75,0.333-1.119c0.492,0.203,0.963,0.351,1.393,0.438
				c0.428,0.104,0.89,0.152,1.381,0.148c0.741,0,1.313-0.148,1.741-0.415c0.416-0.271,0.63-0.688,0.627-1.252
				c-0.003-0.279-0.051-0.522-0.153-0.704c-0.098-0.191-0.226-0.352-0.382-0.479c-0.167-0.123-0.341-0.229-0.543-0.324
				c-0.198-0.08-0.407-0.162-0.615-0.254L132.481,255.51z"/>
			<path style="fill:#CC9C2A;" d="M144.991,248.695c0.43-0.074,0.856-0.104,1.284-0.115c0.417,0,0.852,0.037,1.292,0.112
				l0.011,4.946l4.237-0.008l-0.018-4.949c0.431-0.071,0.86-0.113,1.279-0.113c0.422,0,0.856,0.042,1.304,0.099l0.031,12.622
				c-0.443,0.077-0.873,0.103-1.279,0.103c-0.436,0.009-0.864-0.025-1.297-0.096l-0.016-5.444h-4.227l0.007,5.458
				c-0.44,0.073-0.863,0.106-1.274,0.106c-0.434,0-0.869-0.033-1.305-0.099L144.991,248.695z"/>
			<path style="fill:#CC9C2A;" d="M162.012,248.65l7.165-0.029c0.065,0.357,0.102,0.723,0.102,1.068
				c0.003,0.396-0.032,0.76-0.099,1.111l-4.598,0.021l0.011,2.73l3.647-0.007c0.069,0.37,0.105,0.739,0.105,1.095
				c0.003,0.372-0.03,0.729-0.098,1.099l-3.65,0.018l0.004,3.329l4.725-0.02c0.072,0.354,0.108,0.715,0.108,1.088
				c0.004,0.375-0.036,0.735-0.102,1.09l-7.282,0.033L162.012,248.65z"/>
			<path style="fill:#CC9C2A;" d="M176.509,248.61c0.359-0.065,0.705-0.106,1.035-0.106c0.348,0,0.711,0.031,1.088,0.106
				l4.898,8.022l-0.018-8.053c0.414-0.07,0.824-0.098,1.207-0.098c0.359,0,0.713,0.027,1.049,0.086l0.037,12.634
				c-0.373,0.075-0.709,0.107-1.016,0.107c-0.33,0-0.686-0.032-1.072-0.097l-4.936-8.014l0.021,8.014
				c-0.371,0.083-0.752,0.115-1.143,0.115c-0.385,0.005-0.758-0.032-1.12-0.102L176.509,248.61z"/>
			<path style="fill:#CC9C2A;" d="M200.353,254.616c0.432-0.069,0.859-0.118,1.266-0.118c0.412,0,0.84,0.04,1.279,0.115l0.021,6.182
				c-0.611,0.23-1.246,0.384-1.908,0.453c-0.658,0.085-1.227,0.124-1.727,0.124c-1.031,0.007-1.93-0.159-2.699-0.482
				c-0.779-0.316-1.416-0.756-1.936-1.33c-0.518-0.589-0.904-1.272-1.162-2.06c-0.262-0.791-0.395-1.659-0.395-2.602
				c-0.01-0.931,0.125-1.807,0.396-2.608c0.266-0.804,0.656-1.497,1.16-2.077c0.506-0.598,1.127-1.046,1.871-1.373
				c0.74-0.336,1.588-0.506,2.541-0.506c0.555,0,1.076,0.029,1.566,0.098c0.49,0.072,0.99,0.219,1.516,0.44
				c-0.021,0.355-0.088,0.688-0.203,1.026c-0.119,0.33-0.246,0.672-0.387,1.018c-0.406-0.146-0.77-0.254-1.086-0.304
				c-0.316-0.062-0.691-0.084-1.123-0.084c-1.129,0-1.988,0.368-2.586,1.102c-0.604,0.734-0.9,1.83-0.896,3.253
				c0.002,1.438,0.309,2.52,0.904,3.221c0.6,0.71,1.479,1.057,2.641,1.053c0.191,0,0.377-0.008,0.533-0.029
				c0.158-0.029,0.299-0.05,0.424-0.072L200.353,254.616z"/>
			<path style="fill:#CC9C2A;" d="M219.341,248.482c0.432-0.072,0.863-0.102,1.279-0.102c0.422-0.004,0.854,0.029,1.301,0.102
				l0.016,4.951l4.227-0.019l-0.014-4.96c0.432-0.057,0.859-0.092,1.281-0.092c0.418-0.005,0.855,0.035,1.301,0.092l0.037,12.622
				c-0.447,0.069-0.877,0.102-1.285,0.109c-0.432,0-0.867-0.032-1.299-0.109l-0.014-5.45l-4.234,0.014l0.018,5.457
				c-0.439,0.064-0.867,0.104-1.279,0.115c-0.432,0-0.863-0.039-1.297-0.102L219.341,248.482z"/>
			<path style="fill:#CC9C2A;" d="M239.296,248.432c0.242-0.033,0.477-0.068,0.697-0.084c0.223-0.014,0.469-0.023,0.738-0.023
				c0.234,0,0.461,0.004,0.688,0.023c0.219,0.016,0.461,0.033,0.73,0.074l3.99,12.611c-0.479,0.064-0.949,0.099-1.402,0.099
				c-0.447,0-0.883-0.034-1.303-0.089l-0.709-2.539l-4.178,0.024l-0.713,2.521c-0.422,0.072-0.82,0.113-1.211,0.113
				c-0.432,0-0.855-0.032-1.275-0.102L239.296,248.432z M242.124,256.395l-1.475-5.308l-1.508,5.308H242.124z"/>
			<path style="fill:#CC9C2A;" d="M257.437,261.202c-0.945,0.011-1.77-0.159-2.453-0.481c-0.695-0.326-1.26-0.786-1.705-1.354
				c-0.451-0.576-0.781-1.264-1-2.049c-0.217-0.801-0.326-1.655-0.332-2.592c-0.004-0.94,0.1-1.811,0.312-2.6
				c0.217-0.811,0.549-1.51,0.994-2.081c0.438-0.597,1.008-1.06,1.697-1.379c0.686-0.333,1.506-0.489,2.449-0.508
				c0.951,0,1.766,0.169,2.463,0.491c0.689,0.328,1.256,0.787,1.705,1.367c0.445,0.58,0.777,1.268,1.002,2.074
				c0.213,0.803,0.322,1.664,0.326,2.604c0,0.943-0.102,1.797-0.318,2.589c-0.211,0.79-0.537,1.481-0.982,2.062
				c-0.443,0.569-1.014,1.026-1.701,1.362C259.206,261.043,258.384,261.202,257.437,261.202z M257.433,259.061
				c1.814,0,2.717-1.461,2.707-4.359c-0.002-1.446-0.225-2.525-0.668-3.262c-0.443-0.721-1.121-1.08-2.051-1.08
				c-1.834,0.009-2.744,1.467-2.74,4.359C254.69,257.617,255.604,259.066,257.433,259.061z"/>
		</g>
		<g>
			<rect x="199.632" y="101.253" style="fill:#CC9C2A;" width="7.375" height="24.82"/>
			<polygon style="fill:#CC9C2A;" points="138.662,130.783 138.662,130.783 138.662,130.783 143.135,130.783 207.013,130.783 
				207.013,123.416 207.007,123.416 199.632,123.416 146.037,123.416 138.662,123.416 			"/>
			<polygon style="fill:#CC9C2A;" points="138.662,110.018 138.662,108.625 139.679,108.625 146.037,108.625 184.755,108.625 
				187.919,108.625 187.919,116.008 184.755,116.008 146.037,116.008 146.037,124.733 138.662,124.733 			"/>
			<polygon style="fill:#CC9C2A;" points="207.013,70.096 207.013,64.371 143.135,64.371 138.662,64.371 138.662,71.746 
				143.135,71.746 194.776,71.746 199.632,71.746 207.013,71.746 			"/>
			<polygon style="fill:#CC9C2A;" points="195.878,93.876 146.037,93.876 143.135,93.876 138.662,93.876 138.662,93.876 
				138.662,96.469 138.662,101.253 146.037,101.253 147.722,101.253 207.013,101.253 207.013,97.574 207.013,93.876 199.632,93.876 
							"/>
			<polygon style="fill:#CC9C2A;" points="224.782,79.135 224.782,79.135 210.497,79.135 207.013,79.135 199.632,79.135 
				117.831,79.135 117.199,79.135 117.199,79.135 109.817,79.135 109.817,79.135 109.817,80.661 109.817,86.509 109.817,102.541 
				117.199,102.541 117.199,86.509 117.831,86.509 199.632,86.509 207.013,86.509 209.175,86.509 224.782,86.509 224.782,102.541 
				232.165,102.541 232.165,86.509 232.165,80.661 232.165,79.135 232.165,79.135 			"/>
			<rect x="138.662" y="71.746" style="fill:#CC9C2A;" width="7.376" height="24.76"/>
			<g>
				<g>
					<polygon style="fill:#CC9C2A;" points="218.038,175.268 123.959,175.268 117.363,175.268 117.363,182.637 123.959,182.637 
						218.038,182.637 224.622,182.637 224.622,175.268 					"/>
					<polygon style="fill:#CC9C2A;" points="174.763,175.312 174.763,142.106 167.385,142.106 167.385,175.312 167.385,220.75 
						174.763,220.75 					"/>
					<path style="fill:#CC9C2A;" d="M150.28,192.756c3.195-3.195,6.936-4.635,8.355-3.214c1.426,1.413-0.013,5.162-3.207,8.355
						c-3.194,3.192-6.935,4.629-8.356,3.209C145.646,199.68,147.082,195.953,150.28,192.756z"/>
					<path style="fill:#CC9C2A;" d="M155.554,159.911c3.192,3.195,4.633,6.917,3.207,8.354c-1.416,1.421-5.161-0.023-8.362-3.205
						c-3.191-3.194-4.626-6.934-3.201-8.361C148.617,155.271,152.363,156.713,155.554,159.911z"/>
					<path style="fill:#CC9C2A;" d="M191.862,165.178c-3.189,3.195-6.934,4.632-8.357,3.21c-1.422-1.425,0.014-5.167,3.215-8.364
						c3.188-3.189,6.93-4.618,8.35-3.204C196.495,158.238,195.054,161.98,191.862,165.178z"/>
					<path style="fill:#CC9C2A;" d="M186.583,198.032c-3.195-3.206-4.629-6.947-3.205-8.368c1.418-1.412,5.166,0.013,8.354,3.211
						c3.199,3.193,4.631,6.94,3.211,8.35C193.524,202.664,189.776,201.221,186.583,198.032z"/>
				</g>
				<path style="fill:#CC9C2A;" d="M231.956,139.44h-7.334h-0.664h-52.97h-52.966h-0.659h-7.335h-0.036v2.026v3.644v1.705v26.661
					v16.065c0,9.013,5.85,16.642,13.943,19.332l0.172,0.048l1.238,0.361l1.89,0.556l0,0l6.095,1.807l0,0l1.37,0.405l0.345,0.098
					c1.376,0.471,2.463,1.536,2.965,2.889c0.015,0.04,0.03,0.087,0.042,0.112c1.891,4.841,6.583,8.267,12.087,8.267h2.012h18.838
					h18.853h2.002c5.508,0,10.197-3.426,12.09-8.267c0.012-0.025,0.023-0.072,0.035-0.112c0.506-1.353,1.592-2.418,2.973-2.889
					l0.34-0.098l1.377-0.405l0,0l6.09-1.807l0,0l1.889-0.556l1.234-0.361l0.18-0.048c8.1-2.69,13.939-10.319,13.939-19.332v-16.065
					v-26.661v-1.705v-3.644v-2.026H231.956z M224.622,173.477v0.388v11.646v4.008c0,5.822-3.836,10.759-9.119,12.403
					c-0.006,0-0.021,0.006-0.035,0.006l-4.057,1.204c0.006,0,0.006,0.004,0.006,0.004l-6.35,1.878l-0.312,0.093
					c-0.312,0.095-0.615,0.229-0.914,0.364c-3.133,1.293-5.594,3.846-6.771,7.031c-0.027,0.059-0.049,0.129-0.082,0.205
					c-0.797,1.803-2.514,3.127-4.568,3.331h-1.148h-1.43h-7.654h-2.041h-9.123h-0.034h-0.029h-9.128h-2.036h-7.645h-1.433h-1.16
					c-2.047-0.204-3.77-1.528-4.562-3.331c-0.032-0.076-0.058-0.146-0.082-0.205c-1.177-3.186-3.642-5.738-6.77-7.031
					c-0.303-0.135-0.603-0.27-0.915-0.364l-0.314-0.093l-6.35-1.865c0-0.013,0.002-0.017,0.002-0.017l-4.051-1.204
					c-0.011,0-0.022-0.006-0.038-0.006c-5.282-1.645-9.115-6.581-9.115-12.403v-4.008v-11.646v-0.388v-26.661h0.659h52.966h52.97
					h0.664V173.477z"/>
			</g>
		</g>
	</g>
</g>
</svg>
