<?xml version="1.0" encoding="iso-8859-1"?>
<!-- Generator: Adobe Illustrator 16.0.0, SVG Export Plug-In . SVG Version: 6.00 Build 0)  -->
<!DOCTYPE svg PUBLIC "-//W3C//DTD SVG 1.1//EN" "http://www.w3.org/Graphics/SVG/1.1/DTD/svg11.dtd">
<svg version="1.1" xmlns="http://www.w3.org/2000/svg" xmlns:xlink="http://www.w3.org/1999/xlink" x="0px" y="0px" width="353px"
	 height="326px" viewBox="0 0 353 326" style="enable-background:new 0 0 353 326;" xml:space="preserve">
<g id="&#x5E95;&#x8272;">
	<radialGradient id="SVGID_1_" cx="176.5" cy="163" r="169.8842" gradientUnits="userSpaceOnUse">
		<stop  offset="0" style="stop-color:#FFFFFF;stop-opacity:0"/>
		<stop  offset="0.1071" style="stop-color:#E4E4E4;stop-opacity:0.0857"/>
		<stop  offset="0.249" style="stop-color:#C7C7C7;stop-opacity:0.1992"/>
		<stop  offset="0.4006" style="stop-color:#B0B0B0;stop-opacity:0.3205"/>
		<stop  offset="0.5645" style="stop-color:#A0A0A0;stop-opacity:0.4516"/>
		<stop  offset="0.7495" style="stop-color:#979797;stop-opacity:0.5996"/>
		<stop  offset="1" style="stop-color:#949494;stop-opacity:0.8"/>
	</radialGradient>
	<rect style="opacity:0.5;fill:url(#SVGID_1_);" width="353" height="326"/>
</g>
<g id="logo">
	<g>
		<rect x="215.446" y="63" style="fill:#D7000F;" width="6.527" height="200"/>
		<rect x="131.026" y="63" style="fill:#D7000F;" width="6.527" height="200"/>
		<g>
			<rect x="152.824" y="89.806" style="fill:#D7000F;" width="47.347" height="4.349"/>
		</g>
		<g>
			<rect x="182.58" y="163.208" style="fill:#D7000F;" width="26.199" height="4.327"/>
		</g>
		<g>
			<rect x="189.715" y="149.716" style="fill:#D7000F;" width="19.064" height="4.339"/>
		</g>
		<g>
			<rect x="152.824" y="163.188" style="fill:#D7000F;" width="20.38" height="4.348"/>
		</g>
		<g>
			<rect x="144.21" y="149.709" style="fill:#D7000F;" width="28.994" height="4.352"/>
		</g>
		<g>
			<rect x="144.122" y="205.01" style="fill:#D7000F;" width="31.499" height="4.35"/>
		</g>
		<g>
			<rect x="189.715" y="205.014" style="fill:#D7000F;" width="19.159" height="4.35"/>
		</g>
		<g>
			<rect x="196.505" y="232.637" style="fill:#D7000F;" width="12.369" height="4.352"/>
		</g>
		<g>
			<rect x="144.122" y="232.637" style="fill:#D7000F;" width="29.298" height="4.352"/>
		</g>
		<g>
			<rect x="144.122" y="218.82" style="fill:#D7000F;" width="31.503" height="4.346"/>
		</g>
		<g>
			<rect x="152.824" y="108.284" style="fill:#D7000F;" width="47.347" height="4.348"/>
		</g>
		<g>
			<rect x="144.125" y="137.52" style="fill:#D7000F;" width="64.749" height="4.349"/>
		</g>
		<g>
			<rect x="152.832" y="117.419" style="fill:#D7000F;" width="47.405" height="4.346"/>
		</g>
		<g>
			<rect x="152.886" y="128.283" style="fill:#D7000F;" width="47.352" height="4.35"/>
		</g>
		<g>
			<rect x="144.122" y="172.373" style="fill:#D7000F;" width="64.752" height="4.355"/>
		</g>
		<g>
			<rect x="141.604" y="195.771" style="fill:#D7000F;" width="33.992" height="4.357"/>
		</g>
		<g>
			<rect x="180.479" y="195.771" style="fill:#D7000F;" width="30.915" height="4.357"/>
		</g>
		<g>
			<rect x="144.122" y="99.042" style="fill:#D7000F;" width="64.752" height="4.346"/>
		</g>
		<g>
			<rect x="143.588" y="99.042" style="fill:#D7000F;" width="4.351" height="13.589"/>
		</g>
		<g>
			<rect x="144.122" y="137.52" style="fill:#D7000F;" width="4.354" height="30.016"/>
		</g>
		<g>
			<rect x="204.521" y="149.716" style="fill:#D7000F;" width="4.353" height="17.819"/>
		</g>
		<g>
			<rect x="171.167" y="149.709" style="fill:#D7000F;" width="4.35" height="25.748"/>
		</g>
		<g>
			<rect x="195.888" y="117.83" style="fill:#D7000F;" width="4.35" height="14.803"/>
		</g>
		<g>
			<rect x="152.824" y="119.528" style="fill:#D7000F;" width="4.353" height="11.411"/>
		</g>
		<g>
			<rect x="144.122" y="172.373" style="fill:#D7000F;" width="4.354" height="27.756"/>
		</g>
		<g>
			<rect x="204.521" y="172.373" style="fill:#D7000F;" width="4.353" height="27.314"/>
		</g>
		<g>
			<rect x="189.715" y="191.371" style="fill:#D7000F;" width="4.353" height="15.66"/>
		</g>
		<g>
			<rect x="204.521" y="214.252" style="fill:#D7000F;" width="4.353" height="22.756"/>
		</g>
		<g>
			<rect x="171.245" y="172.389" style="fill:#D7000F;" width="4.351" height="26.115"/>
		</g>
		<g>
			<rect x="180.479" y="172.389" style="fill:#D7000F;" width="4.349" height="64.6"/>
		</g>
		<g>
			<rect x="144.122" y="206.252" style="fill:#D7000F;" width="4.354" height="15.445"/>
		</g>
		<g>
			<rect x="171.245" y="218.82" style="fill:#D7000F;" width="4.351" height="18.168"/>
		</g>
		<g>
			<rect x="188.494" y="214.338" style="fill:#D7000F;" width="4.348" height="22.67"/>
		</g>
		<g>
			<rect x="196.505" y="214.252" style="fill:#D7000F;" width="4.353" height="22.736"/>
		</g>
		<g>
			<rect x="180.405" y="137.52" style="fill:#D7000F;" width="4.35" height="30.016"/>
		</g>
		<g>
			<rect x="205.134" y="99.042" style="fill:#D7000F;" width="4.349" height="13.589"/>
		</g>
		<rect x="137.554" y="76.169" style="fill:#D7000F;" width="77.893" height="6.522"/>
		<rect x="131.184" y="243.301" style="fill:#D7000F;" width="90.79" height="6.529"/>
		<g>
			<path style="fill:#D7000F;" d="M141.15,254.227h4.031c0.014,0.064,0.025,0.135,0.033,0.209c0.006,0.074,0.01,0.148,0.01,0.221
				c0,0.07-0.004,0.145-0.01,0.223c-0.008,0.078-0.02,0.15-0.033,0.215h-2.938v2.055h2.455c0.014,0.072,0.025,0.145,0.032,0.219
				c0.007,0.076,0.011,0.148,0.011,0.221s-0.004,0.145-0.011,0.219s-0.019,0.146-0.032,0.219h-2.455v3.205
				c-0.086,0.012-0.173,0.021-0.263,0.029c-0.09,0.006-0.185,0.01-0.284,0.01c-0.093,0-0.188-0.004-0.284-0.01
				c-0.097-0.008-0.185-0.018-0.263-0.029V254.227z"/>
			<path style="fill:#D7000F;" d="M146.479,254.227c0.172-0.02,0.357-0.029,0.559-0.029c0.191,0,0.37,0.01,0.535,0.029v3.973
				c0,0.404,0.029,0.748,0.086,1.035c0.057,0.285,0.15,0.518,0.278,0.695c0.129,0.178,0.298,0.311,0.509,0.395
				c0.212,0.084,0.471,0.127,0.778,0.127c0.307,0,0.564-0.043,0.772-0.127c0.206-0.084,0.374-0.217,0.503-0.395
				c0.128-0.178,0.222-0.41,0.279-0.695c0.057-0.287,0.086-0.631,0.086-1.035v-3.973c0.179-0.02,0.36-0.029,0.546-0.029
				c0.2,0,0.386,0.01,0.558,0.029v4.15c0,0.467-0.048,0.885-0.145,1.256s-0.254,0.682-0.472,0.936
				c-0.219,0.254-0.502,0.445-0.853,0.58c-0.351,0.131-0.775,0.199-1.275,0.199c-0.501,0-0.926-0.068-1.275-0.199
				c-0.351-0.135-0.636-0.326-0.853-0.58c-0.219-0.254-0.376-0.564-0.473-0.936c-0.096-0.371-0.145-0.789-0.145-1.256V254.227z"/>
			<path style="fill:#D7000F;" d="M156.128,260.168c0.234,0.078,0.482,0.146,0.74,0.205c0.257,0.059,0.57,0.088,0.942,0.088
				c0.586,0,1.024-0.109,1.313-0.326c0.289-0.219,0.435-0.512,0.435-0.883c0-0.18-0.031-0.336-0.092-0.467s-0.151-0.242-0.273-0.336
				c-0.121-0.094-0.273-0.18-0.455-0.258c-0.183-0.078-0.395-0.162-0.638-0.254l-0.611-0.225c-0.208-0.078-0.397-0.164-0.568-0.256
				c-0.172-0.096-0.319-0.211-0.444-0.348c-0.126-0.135-0.224-0.293-0.296-0.473c-0.071-0.178-0.106-0.391-0.106-0.637
				c0-0.592,0.222-1.053,0.665-1.389c0.442-0.334,1.063-0.502,1.865-0.502c0.343,0,0.668,0.027,0.976,0.078
				c0.307,0.053,0.578,0.117,0.815,0.195c-0.037,0.273-0.116,0.541-0.237,0.809c-0.192-0.066-0.415-0.123-0.67-0.176
				c-0.254-0.053-0.541-0.078-0.863-0.078c-0.449,0-0.797,0.084-1.04,0.248c-0.242,0.166-0.363,0.416-0.363,0.744
				c0,0.139,0.03,0.26,0.091,0.365c0.061,0.109,0.141,0.203,0.241,0.283c0.101,0.082,0.218,0.156,0.354,0.221
				c0.137,0.064,0.279,0.123,0.429,0.176l0.601,0.213c0.285,0.105,0.54,0.213,0.762,0.326c0.221,0.115,0.41,0.246,0.568,0.4
				c0.156,0.152,0.275,0.332,0.358,0.539c0.082,0.209,0.123,0.453,0.123,0.73c0,0.67-0.253,1.199-0.761,1.584
				c-0.507,0.387-1.219,0.58-2.134,0.58c-0.222,0-0.421-0.008-0.6-0.02c-0.18-0.012-0.345-0.033-0.5-0.059
				c-0.152-0.027-0.302-0.059-0.444-0.098s-0.29-0.082-0.438-0.127c0.013-0.143,0.045-0.289,0.096-0.438
				C156.017,260.459,156.07,260.311,156.128,260.168z"/>
			<path style="fill:#D7000F;" d="M162.163,254.227c0.086-0.012,0.176-0.023,0.269-0.029c0.093-0.008,0.186-0.01,0.278-0.01
				s0.186,0.002,0.279,0.01c0.093,0.006,0.183,0.018,0.268,0.029v2.883h3.281v-2.883c0.079-0.012,0.164-0.023,0.258-0.029
				c0.092-0.008,0.185-0.01,0.277-0.01s0.188,0.002,0.285,0.01c0.096,0.006,0.188,0.018,0.273,0.029v7.004
				c-0.08,0.012-0.165,0.021-0.259,0.029c-0.092,0.006-0.188,0.01-0.288,0.01c-0.094,0-0.188-0.004-0.284-0.01
				c-0.097-0.008-0.184-0.018-0.263-0.029v-3.244h-3.281v3.244c-0.085,0.012-0.173,0.021-0.263,0.029
				c-0.089,0.006-0.185,0.01-0.284,0.01c-0.093,0-0.187-0.004-0.284-0.01c-0.097-0.008-0.185-0.018-0.263-0.029V254.227z"/>
			<path style="fill:#D7000F;" d="M169.518,254.227h4.236c0.021,0.129,0.031,0.273,0.031,0.43c0,0.07-0.002,0.145-0.006,0.223
				s-0.012,0.15-0.025,0.215h-3.142v2.008h2.508c0.015,0.064,0.025,0.133,0.032,0.207c0.007,0.076,0.011,0.148,0.011,0.221
				c0,0.07-0.004,0.145-0.011,0.223c-0.007,0.08-0.018,0.15-0.032,0.215h-2.508v2.396h3.227c0.021,0.131,0.032,0.271,0.032,0.428
				c0,0.072-0.002,0.146-0.006,0.225s-0.012,0.148-0.026,0.215h-4.321V254.227z"/>
			<path style="fill:#D7000F;" d="M175.265,254.227c0.078-0.012,0.162-0.023,0.252-0.029c0.089-0.008,0.173-0.01,0.252-0.01
				s0.163,0.002,0.253,0.01c0.089,0.006,0.173,0.018,0.251,0.029l3.356,5.262v-5.262c0.085-0.012,0.175-0.023,0.268-0.029
				c0.093-0.008,0.185-0.01,0.278-0.01c0.079,0,0.161,0.002,0.247,0.01c0.085,0.006,0.168,0.018,0.246,0.029v7.004
				c-0.078,0.012-0.162,0.021-0.251,0.029c-0.09,0.006-0.174,0.01-0.253,0.01s-0.163-0.004-0.252-0.01
				c-0.09-0.008-0.174-0.018-0.252-0.029l-3.366-5.23v5.23c-0.079,0.012-0.163,0.021-0.252,0.029c-0.09,0.006-0.178,0.01-0.263,0.01
				c-0.094,0-0.184-0.004-0.273-0.01c-0.09-0.008-0.171-0.018-0.241-0.029V254.227z"/>
			<path style="fill:#D7000F;" d="M187.015,257.607c0.086-0.014,0.176-0.023,0.269-0.029c0.093-0.008,0.187-0.01,0.278-0.01
				c0.093,0,0.186,0.002,0.279,0.01c0.093,0.006,0.179,0.016,0.257,0.029v3.418c-0.149,0.059-0.314,0.109-0.493,0.15
				c-0.178,0.043-0.364,0.076-0.558,0.1c-0.192,0.021-0.386,0.041-0.578,0.053c-0.193,0.012-0.376,0.02-0.548,0.02
				c-0.572,0-1.086-0.082-1.543-0.244c-0.458-0.162-0.844-0.396-1.158-0.707c-0.314-0.307-0.556-0.682-0.724-1.125
				c-0.168-0.439-0.251-0.941-0.251-1.5c0-0.557,0.085-1.062,0.257-1.514c0.171-0.453,0.415-0.836,0.734-1.154
				c0.317-0.318,0.696-0.562,1.137-0.736c0.439-0.172,0.927-0.258,1.462-0.258c0.408,0,0.763,0.025,1.062,0.074
				c0.3,0.047,0.572,0.115,0.814,0.199c-0.015,0.148-0.045,0.287-0.092,0.412c-0.046,0.127-0.102,0.264-0.165,0.404
				c-0.201-0.057-0.417-0.109-0.648-0.154c-0.233-0.047-0.524-0.068-0.874-0.068c-0.379,0-0.725,0.061-1.034,0.184
				c-0.312,0.125-0.576,0.305-0.794,0.543c-0.218,0.236-0.388,0.529-0.509,0.875c-0.122,0.35-0.183,0.746-0.183,1.193
				c0,0.463,0.062,0.859,0.188,1.195c0.125,0.332,0.302,0.611,0.53,0.836s0.499,0.391,0.811,0.498c0.31,0.107,0.655,0.16,1.034,0.16
				c0.229,0,0.428-0.012,0.6-0.035c0.171-0.021,0.318-0.049,0.439-0.08V257.607z"/>
			<path style="fill:#D7000F;" d="M192.396,254.227c0.086-0.012,0.175-0.023,0.269-0.029c0.093-0.008,0.186-0.01,0.279-0.01
				c0.092,0,0.186,0.002,0.277,0.01c0.093,0.006,0.183,0.018,0.269,0.029v2.883h3.281v-2.883c0.078-0.012,0.164-0.023,0.257-0.029
				c0.094-0.008,0.186-0.01,0.278-0.01s0.188,0.002,0.284,0.01c0.098,0.006,0.188,0.018,0.274,0.029v7.004
				c-0.079,0.012-0.165,0.021-0.258,0.029c-0.093,0.006-0.189,0.01-0.29,0.01c-0.093,0-0.188-0.004-0.283-0.01
				c-0.097-0.008-0.185-0.018-0.263-0.029v-3.244h-3.281v3.244c-0.086,0.012-0.174,0.021-0.263,0.029
				c-0.09,0.006-0.184,0.01-0.283,0.01c-0.094,0-0.188-0.004-0.285-0.01c-0.096-0.008-0.184-0.018-0.263-0.029V254.227z"/>
			<path style="fill:#D7000F;" d="M203.547,259.613h-2.928l-0.524,1.617c-0.093,0.012-0.186,0.021-0.278,0.029
				c-0.094,0.006-0.187,0.01-0.279,0.01c-0.101,0-0.198-0.004-0.295-0.01c-0.097-0.008-0.185-0.018-0.263-0.029l2.509-7.004
				c0.093-0.012,0.193-0.023,0.3-0.029c0.107-0.008,0.219-0.01,0.333-0.01c0.1,0,0.203,0.002,0.312,0.01
				c0.105,0.006,0.21,0.018,0.31,0.029l2.498,7.004c-0.086,0.012-0.182,0.021-0.289,0.029c-0.107,0.006-0.21,0.01-0.311,0.01
				c-0.094,0-0.188-0.004-0.284-0.01c-0.097-0.008-0.188-0.018-0.273-0.029L203.547,259.613z M200.91,258.746h2.348l-1.18-3.574
				L200.91,258.746z"/>
			<path style="fill:#D7000F;" d="M209.067,261.348c-0.557,0-1.039-0.09-1.446-0.27c-0.407-0.178-0.745-0.428-1.013-0.748
				c-0.269-0.322-0.469-0.705-0.601-1.146s-0.199-0.924-0.199-1.449c0-0.527,0.067-1.01,0.199-1.451s0.332-0.824,0.601-1.146
				c0.268-0.32,0.605-0.572,1.013-0.754s0.89-0.273,1.446-0.273c0.559,0,1.041,0.092,1.448,0.273
				c0.408,0.182,0.745,0.434,1.014,0.754c0.269,0.322,0.466,0.705,0.595,1.146c0.128,0.441,0.193,0.924,0.193,1.451
				c0,0.525-0.065,1.008-0.193,1.449c-0.129,0.441-0.326,0.824-0.595,1.146c-0.269,0.32-0.605,0.57-1.014,0.748
				C210.108,261.258,209.626,261.348,209.067,261.348z M209.067,260.49c0.358,0,0.667-0.064,0.929-0.189
				c0.261-0.127,0.477-0.311,0.648-0.551c0.171-0.24,0.3-0.529,0.385-0.867c0.086-0.338,0.129-0.721,0.129-1.148
				c0-0.424-0.043-0.805-0.129-1.146c-0.085-0.34-0.214-0.629-0.385-0.865c-0.172-0.238-0.388-0.42-0.648-0.547
				c-0.262-0.127-0.57-0.189-0.929-0.189c-0.356,0-0.665,0.062-0.926,0.189c-0.262,0.127-0.478,0.309-0.649,0.547
				c-0.172,0.236-0.3,0.525-0.386,0.865c-0.086,0.342-0.129,0.723-0.129,1.146c0,0.428,0.043,0.811,0.129,1.148
				s0.214,0.627,0.386,0.867s0.388,0.424,0.649,0.551C208.402,260.426,208.711,260.49,209.067,260.49z"/>
		</g>
		<g>
			<path style="fill:#D7000F;" d="M144.691,69.2v-2.185c0-0.104,0.054-0.157,0.161-0.157h8.882l0.75,0.366
				c-0.021,0.595-0.149,1.286-0.417,2.09l-0.826-0.24c0.183-0.647,0.269-1.076,0.269-1.285c0-0.084-0.032-0.126-0.107-0.126h-7.758
				c-0.053,0-0.086,0.032-0.086,0.084V69.2H144.691z M147.563,72.534l-0.258-0.867h-1.061c-0.075,0-0.106-0.042-0.106-0.116v-2.017
				c0-0.073,0.031-0.104,0.106-0.104h6.461c0.075,0,0.118,0.031,0.118,0.104v2.017c0,0.074-0.043,0.116-0.118,0.116h-1.039
				l-0.236,0.867h2.775v0.805h-9.515v-0.805H147.563z M149.03,65.657v-0.522h-4.006v-0.805h4.006V63.9h0.9v0.429h3.942v0.805h-3.942
				v0.522h3.396v0.763h-7.671v-0.763H149.03z M146.159,68.207h6.665v0.721h-6.665V68.207z M151.956,70.151h-4.96
				c-0.033,0-0.043,0.01-0.033,0.032v0.721l0.033,0.042h4.96l0.043-0.042v-0.721L151.956,70.151z M148.463,72.534h2.079l0.226-0.867
				h-2.572L148.463,72.534z"/>
			<path style="fill:#D7000F;" d="M164.364,71.447v-2.927h-1.403v-0.889h1.403v-2.498h-1.446v-0.889h3.782v0.889h-1.425v2.498h1.253
				v0.889h-1.253v2.582c0.514-0.209,0.932-0.429,1.274-0.627l0.482,0.752c-1.008,0.555-2.304,1.077-3.88,1.548l-0.438-0.837
				L164.364,71.447z M170.343,65.28h-1.961c0.021,1.6-0.086,2.644-1.093,3.972l-0.868-0.334c0.954-1.328,1.093-2.519,1.093-3.815
				c0-0.345-0.01-0.721-0.032-1.128h0.837l0.021,0.407h2.594c0.246,0,0.353,0.052,0.353,0.188h0.011l-0.021,0.199
				c-0.022,0.48-0.086,1.024-0.194,1.652c-0.031,0.407-0.043,0.783-0.043,1.139c0,0.564,0.033,1.056,0.108,1.495
				c0.192,1.264,0.706,2.696,1.532,4.286l-0.954,0.188c-0.644-1.359-1.092-2.77-1.329-4.213c-0.695,1.966-1.789,3.376-3.277,4.213
				l-0.911-0.648c0.878-0.397,1.66-0.972,2.314-1.683c0.771-0.993,1.35-2.435,1.726-4.316L170.343,65.28z"/>
			<path style="fill:#D7000F;" d="M184.4,72.765l-3.128,0.669l-0.343-0.805l0.439-0.084c0.278-0.783,0.535-1.599,0.729-2.467h-1.114
				v-0.815h0.621v-5.027c-0.01-0.125,0.043-0.198,0.193-0.198h3.085v0.815h-2.313c-0.075,0-0.107,0.021-0.098,0.094v0.847h2.24
				v0.805h-2.24v0.909h2.24v0.815h-2.24v0.94h2.497v0.815h-2.025c-0.139,0.628-0.343,1.391-0.632,2.279l1.812-0.345
				c-0.183-0.46-0.354-0.837-0.525-1.15l0.76-0.334c0.386,0.7,0.74,1.579,1.062,2.644l-0.793,0.293L184.4,72.765z M187.38,72.032
				h-2.047v-0.805h2.047V70.36h-1.757v-0.804h1.757v-0.826h-1.875v-0.815h1.875v-0.825h-2.304v-0.805h2.304V65.5h-1.908v-0.805
				h1.908v-0.753h0.867v0.753h1.854c0.183,0,0.269,0.084,0.269,0.24v1.348h0.535v0.805h-0.535v1.379
				c0,0.177-0.086,0.261-0.269,0.261h-1.854v0.826h2.036v0.804h-2.036v0.867h2.368v0.805h-2.368v1.547h-0.867V72.032z M188.247,65.5
				v0.784h1.286v-0.711c0-0.052-0.021-0.073-0.075-0.073H188.247z M188.247,67.089v0.825h1.211c0.054,0,0.075-0.021,0.075-0.073
				v-0.752H188.247z"/>
			<path style="fill:#D7000F;" d="M199.231,68.468c1.188-0.408,2.217-1.045,3.053-1.892l0.643,0.617
				c-1.114,1.077-2.186,1.777-3.192,2.081L199.231,68.468z M208.638,73.276c-1.489-0.491-2.829-1.17-4.029-2.027v2.331h-0.899
				v-2.311c-1.425,0.993-2.774,1.642-4.05,1.924l-0.428-0.857c1.521-0.346,2.902-0.951,4.135-1.819h-3.911v-0.878h4.254v-0.763
				h0.899v0.763h4.232v0.878h-3.804c1.019,0.868,2.411,1.515,4.137,1.955L208.638,73.276z M200.998,67.089
				c-0.686-0.439-1.253-0.753-1.714-0.931l0.429-0.793c0.524,0.208,1.114,0.522,1.757,0.961L200.998,67.089z M201.78,65.667
				c-0.729-0.481-1.329-0.815-1.82-1.014l0.429-0.795c0.557,0.22,1.177,0.565,1.874,1.035L201.78,65.667z M204.202,66.158
				l-1.437,0.178l-0.191-0.868l1.628-0.198v-1.338h0.91v1.222l3.687-0.469l0.118,0.888l-3.805,0.481v1.317
				c0,0.198,0.119,0.48,0.515,0.511h2.1c0.086,0,0.172-0.031,0.268-0.104c0.043-0.021,0.108-0.397,0.172-1.118l0.89,0.188
				c-0.086,0.93-0.182,1.463-0.29,1.557c-0.214,0.24-0.438,0.366-0.643,0.366h-3.011c-0.386-0.021-0.91-0.407-0.91-0.899V66.158z"/>
		</g>
	</g>
</g>
</svg>
