<?xml version="1.0" encoding="iso-8859-1"?>
<!-- Generator: Adobe Illustrator 16.0.0, SVG Export Plug-In . SVG Version: 6.00 Build 0)  -->
<!DOCTYPE svg PUBLIC "-//W3C//DTD SVG 1.1//EN" "http://www.w3.org/Graphics/SVG/1.1/DTD/svg11.dtd">
<svg version="1.1" xmlns="http://www.w3.org/2000/svg" xmlns:xlink="http://www.w3.org/1999/xlink" x="0px" y="0px" width="353px"
	 height="326px" viewBox="0 0 353 326" style="enable-background:new 0 0 353 326;" xml:space="preserve">
<g id="&#x5E95;&#x8272;">
	<radialGradient id="SVGID_1_" cx="176.5" cy="164" r="169.8842" gradientUnits="userSpaceOnUse">
		<stop  offset="0" style="stop-color:#FFFFFF;stop-opacity:0"/>
		<stop  offset="0.1071" style="stop-color:#E4E4E4;stop-opacity:0.0857"/>
		<stop  offset="0.249" style="stop-color:#C7C7C7;stop-opacity:0.1992"/>
		<stop  offset="0.4006" style="stop-color:#B0B0B0;stop-opacity:0.3205"/>
		<stop  offset="0.5645" style="stop-color:#A0A0A0;stop-opacity:0.4516"/>
		<stop  offset="0.7495" style="stop-color:#979797;stop-opacity:0.5996"/>
		<stop  offset="1" style="stop-color:#949494;stop-opacity:0.8"/>
	</radialGradient>
	<rect y="1" style="opacity:0.5;fill:url(#SVGID_1_);" width="353" height="326"/>
</g>
<g id="logo">
	<g>
		<g>
			<g>
				<g>
					<ellipse style="fill:#FFFFFF;" cx="187.919" cy="84.554" rx="71.951" ry="17.717"/>
					<path style="fill:#FFFFFF;" d="M259.87,84.554v140.454c0,18.862-32.214,34.154-71.952,34.154
						c-39.737,0-71.95-15.292-71.95-34.154V84.554"/>
					
						<ellipse style="fill:none;stroke:#000000;stroke-width:4.8165;stroke-miterlimit:10;" cx="187.919" cy="84.554" rx="71.951" ry="17.717"/>
					<path style="fill:none;stroke:#000000;stroke-width:4.8165;stroke-miterlimit:10;" d="M259.87,84.554v140.454
						c0,18.862-32.214,34.154-71.952,34.154c-39.737,0-71.95-15.292-71.95-34.154V84.554"/>
					<path style="fill:none;" d="M248.361,94.169v149.375c-0.558,0.407-1.13,0.81-1.721,1.205V94.793
						C247.231,94.588,247.804,94.38,248.361,94.169z"/>
					<path style="fill:none;" d="M126.672,93.855v149.084c-0.668-0.512-1.308-1.033-1.919-1.564V93.044
						C125.364,93.319,126.004,93.589,126.672,93.855z"/>
					<path d="M246.641,94.793v149.956c-4.216,2.819-9.31,5.323-15.094,7.419V98.643C237.331,97.555,242.425,96.257,246.641,94.793z"
						/>
					<path d="M225.468,99.669v154.479c-2.424,0.705-4.944,1.345-7.546,1.912V100.661
						C220.523,100.367,223.044,100.034,225.468,99.669z"/>
					<path d="M251.515,93.41v148.672c-1.06,0.495-2.164,0.983-3.312,1.462V94.169C249.351,93.92,250.455,93.668,251.515,93.41z"/>
					<path d="M256.158,90.027v145.534c-0.479,0.445-0.99,0.886-1.526,1.323V90.715C255.168,90.487,255.679,90.26,256.158,90.027z"/>
					<path d="M127.687,94.219V242.55c-0.723-0.288-1.428-0.579-2.112-0.872V93.766C126.259,93.918,126.964,94.068,127.687,94.219z"
						/>
					
						<ellipse style="fill:#FFFFFF;stroke:#000000;stroke-width:1.6957;stroke-miterlimit:10;" cx="187.919" cy="84.554" rx="54.749" ry="10.737"/>
					<g>
						<path style="fill:#FFFFFF;" d="M188.424,131.837c0,0-13.855-16.513-32.908-1.298c0,0-20.215-3.71-22.908,18.25
							c0,0-18.471,9.021-4.485,25.714c0,0-2.182,28.505,26.953,20.719c0,0,4.863,19.698,33.349,11.29
							c0,0,30.797,16.826,47.735-4.074c11.163-16.662-1.925-34.248-6.929-33.931c0,0,2.309-18.562-16.938-19.332
							C212.095,138.05,203.243,128.612,188.424,131.837z"/>
						<path style="fill:#FFFFFF;" d="M241.928,189.654c0,0,16.548-11.543,2.31-24.833c0,0,5.78-22.34-16.679-21.907
							c0,0,3.078-18.491-20.53-17.721c0,0-14.541-19.175-32.76-1.541"/>
						<path style="fill:none;stroke:#000000;stroke-width:7.0246;stroke-miterlimit:10;" d="M188.424,131.837
							c0,0-13.855-16.513-32.908-1.298c0,0-20.215-3.71-22.908,18.25c0,0-18.471,9.021-4.485,25.714c0,0-2.182,28.505,26.953,20.719
							c0,0,4.863,19.698,33.349,11.29c0,0,30.797,16.826,47.735-4.074c11.163-16.662-1.925-34.248-6.929-33.931
							c0,0,2.309-18.562-16.938-19.332C212.095,138.05,203.243,128.612,188.424,131.837z"/>
						<path style="fill:none;stroke:#000000;stroke-width:7.0246;stroke-miterlimit:10;" d="M241.928,189.654
							c0,0,16.548-11.543,2.31-24.833c0,0,5.78-22.34-16.679-21.907c0,0,3.078-18.491-20.53-17.721c0,0-14.541-19.175-32.76-1.541"
							/>
						<path style="fill:none;stroke:#000000;stroke-width:3.136;stroke-miterlimit:10;" d="M165.714,126.734
							c0,0,6.159,6.677,4.876,9.246c0,0-0.769,3.081-4.876,5.906c-4.104,2.824-6.928-2.311-11.29,0
							c-4.361,2.311-7.185,8.465-4.618,11.039c2.565,2.572,12.573,3.599,8.725,10.533c-3.85,6.935-18.99-0.514-17.45,6.677
							c1.539,7.191,4.876,13.354,8.726,12.328c3.849-1.027,5.132-11.814,16.165-6.678c4.195,1.953-1.154,13.868,4.795,15.408
							c5.595,1.449,14.194-1.54,13.938-11.556c-0.257-10.016-3.422-12.328-10.436-13.354c-7.015-1.027-5.475-8.219-3.165-11.557
							s5.261-7.323,11.163-3.98c5.9,3.344,4.395-7.062,9.317-8.604c4.925-1.541,15.188,5.64,12.109,10.782
							c-3.08,5.14-9.751,11.383-5.389,15.581s11.104-5.661,18.22-1.452c4.039,2.39,11.096,14.011,2.884,14.524
							c-8.211,0.514-10.12,1.398-15.458,1.398c-6.929,0-6.864,3.786-7.955,10.271c-1.424,8.454,10.776,7.962,17.192,4.879
							c6.415-3.08,13.087-3.594,13.344,2.056c0.256,5.649,0,9.913,0,9.913"/>
						<path style="fill:none;stroke:#000000;stroke-width:5.2018;stroke-miterlimit:10;" d="M157.524,200.211"/>
						<path style="fill:none;stroke:#000000;stroke-width:5.2018;stroke-miterlimit:10;" d="M144.205,212.914"/>
						<path style="fill:none;stroke:#000000;stroke-width:5.2018;stroke-miterlimit:10;" d="M130.605,210.097"/>
						<path style="fill:none;stroke:#000000;stroke-width:5.2018;stroke-miterlimit:10;" d="M135.044,193.237"/>
					</g>
				</g>
			</g>
		</g>
	</g>
</g>
</svg>
