<?xml version="1.0" encoding="iso-8859-1"?>
<!-- Generator: Adobe Illustrator 16.0.0, SVG Export Plug-In . SVG Version: 6.00 Build 0)  -->
<!DOCTYPE svg PUBLIC "-//W3C//DTD SVG 1.1//EN" "http://www.w3.org/Graphics/SVG/1.1/DTD/svg11.dtd">
<svg version="1.1" xmlns="http://www.w3.org/2000/svg" xmlns:xlink="http://www.w3.org/1999/xlink" x="0px" y="0px" width="353px"
	 height="326px" viewBox="0 0 353 326" style="enable-background:new 0 0 353 326;" xml:space="preserve">
<g id="&#x5E95;&#x8272;">
	<radialGradient id="SVGID_1_" cx="176.5" cy="163" r="169.8842" gradientUnits="userSpaceOnUse">
		<stop  offset="0" style="stop-color:#FFFFFF;stop-opacity:0"/>
		<stop  offset="0.1071" style="stop-color:#E4E4E4;stop-opacity:0.0857"/>
		<stop  offset="0.249" style="stop-color:#C7C7C7;stop-opacity:0.1992"/>
		<stop  offset="0.4006" style="stop-color:#B0B0B0;stop-opacity:0.3205"/>
		<stop  offset="0.5645" style="stop-color:#A0A0A0;stop-opacity:0.4516"/>
		<stop  offset="0.7495" style="stop-color:#979797;stop-opacity:0.5996"/>
		<stop  offset="1" style="stop-color:#949494;stop-opacity:0.8"/>
	</radialGradient>
	<rect style="opacity:0.5;fill:url(#SVGID_1_);" width="353" height="326"/>
</g>
<g id="logo">
	<g>
		<g>
			<path style="fill:#5C5D5D;" d="M166.676,166.711v7.775h8.989v-7.775h2.426v18.584h-2.426v-8.713h-8.989v8.713h-2.398v-18.584
				H166.676z"/>
			<path style="fill:#5C5D5D;" d="M200.146,176.582h-7.225v6.7h8.052v2.013h-10.45v-18.584h10.036v2.013h-7.638v5.873h7.225V176.582
				z"/>
			<path style="fill:#5C5D5D;" d="M212.357,166.711h2.398v16.571h7.941v2.013h-10.34V166.711z"/>
			<path style="fill:#5C5D5D;" d="M233.639,166.711h2.398v16.571h7.941v2.013h-10.34V166.711z"/>
			<path style="fill:#5C5D5D;" d="M269.728,175.81c0,6.397-3.888,9.789-8.631,9.789c-4.907,0-8.354-3.806-8.354-9.431
				c0-5.9,3.668-9.761,8.631-9.761C266.447,166.407,269.728,170.295,269.728,175.81z M255.307,176.113
				c0,3.971,2.151,7.527,5.929,7.527c3.805,0,5.955-3.502,5.955-7.721c0-3.694-1.93-7.555-5.928-7.555
				C257.292,168.365,255.307,172.032,255.307,176.113z"/>
		</g>
		<g>
			<path style="fill:#5C5D5D;" d="M94.499,164.83c0.281,0.233,0.421,0.562,0.421,0.983v0.562h8.058c0.375,0,0.656,0.093,0.843,0.233
				c0.164,0.141,0.257,0.422,0.257,0.844c0,0.352-0.07,0.608-0.21,0.749c-0.188,0.234-0.492,0.352-0.89,0.352H84.31
				c-0.375,0-0.656-0.07-0.843-0.258c-0.188-0.141-0.258-0.421-0.258-0.843c0-0.352,0.07-0.633,0.258-0.844
				c0.187-0.141,0.468-0.233,0.843-0.233h7.682v-0.562c0-0.352,0.117-0.68,0.398-0.983c0.188-0.188,0.539-0.305,1.077-0.305
				C93.937,164.525,94.288,164.643,94.499,164.83z M102.978,177.618v6.582c0,0.608-0.164,1.054-0.445,1.288
				c-0.281,0.234-0.75,0.352-1.382,0.375h-1.007c-0.375,0-0.703-0.023-0.937-0.047c-0.398-0.047-0.703-0.188-0.937-0.375
				c-0.234-0.234-0.328-0.492-0.328-0.773c0-0.211,0.023-0.374,0.094-0.515c0.07-0.211,0.234-0.375,0.516-0.492
				c0.257-0.047,0.562-0.094,0.913-0.094h0.773c0.164,0,0.258-0.047,0.258-0.188v-4.755c0-0.117-0.07-0.188-0.188-0.188H86.769
				c-0.117,0-0.164,0.07-0.164,0.188v6.324c0,0.656-0.445,1.007-1.289,1.007c-0.796,0-1.194-0.351-1.194-1.007v-7.237
				c0-0.983,0.515-1.476,1.546-1.476h15.646C102.415,176.236,102.978,176.705,102.978,177.618z M99.956,169.654
				c0.89,0,1.358,0.469,1.358,1.382v2.647c0,0.937-0.468,1.382-1.358,1.382H87.05c-0.937,0-1.382-0.445-1.382-1.382v-2.647
				c0-0.913,0.445-1.382,1.382-1.382H99.956z M98.855,172.77v-0.819c0-0.188-0.094-0.281-0.281-0.281H88.432
				c-0.188,0-0.281,0.094-0.281,0.281v0.819c0,0.188,0.094,0.281,0.281,0.281h10.142C98.761,173.051,98.855,172.957,98.855,172.77z
				 M97.309,179.352c0.703,0,1.078,0.375,1.078,1.101v2.576c0,0.703-0.375,1.078-1.078,1.078h-7.612
				c-0.75,0-1.101-0.375-1.101-1.078v-2.576c0-0.726,0.351-1.101,1.101-1.101H97.309z M96.115,182.021v-0.562
				c0-0.233-0.141-0.351-0.375-0.351h-4.474c-0.257,0-0.375,0.117-0.375,0.351v0.562c0,0.234,0.117,0.352,0.375,0.352h4.474
				C95.974,182.373,96.115,182.256,96.115,182.021z"/>
			<path style="fill:#5C5D5D;" d="M113.992,168.108c0.164-0.937,0.281-1.826,0.352-2.646c0.094-0.562,0.375-0.843,0.82-0.843
				c0.305,0,0.562,0.047,0.75,0.117c0.351,0.164,0.539,0.468,0.539,0.89c-0.047,0.609-0.141,1.452-0.304,2.482h3.326
				c0.422,0,0.726,0.094,0.914,0.258c0.164,0.164,0.258,0.469,0.258,0.938c0,0.374-0.07,0.632-0.211,0.796
				c-0.234,0.258-0.539,0.375-0.96,0.375h-3.794c-1.054,4.919-2.038,8.244-2.975,9.978c-0.234,0.258-0.539,0.375-0.914,0.375
				c-0.257,0-0.468-0.07-0.656-0.188c-0.281-0.117-0.445-0.398-0.445-0.819c0-0.141,0.047-0.328,0.164-0.562
				c0.937-2.365,1.709-4.708,2.272-7.003c0.14-0.609,0.281-1.195,0.421-1.78h-1.031c-0.421,0-0.726-0.07-0.913-0.258
				c-0.188-0.164-0.281-0.469-0.281-0.913c0-0.398,0.094-0.703,0.281-0.938c0.187-0.164,0.492-0.258,0.913-0.258H113.992z
				 M117.95,172.816c0.281,0.188,0.422,0.469,0.422,0.867c0,0.258-0.047,0.515-0.141,0.796c-0.609,2.437-1.405,4.825-2.366,7.19
				c0.89-0.117,1.71-0.28,2.459-0.468c-0.234-0.656-0.492-1.382-0.75-2.179c-0.094-0.188-0.117-0.422-0.117-0.679
				c0-0.094,0.023-0.234,0.07-0.375c0.094-0.188,0.257-0.328,0.492-0.422c0.141-0.07,0.328-0.117,0.539-0.117
				c0.258,0.047,0.492,0.164,0.726,0.375c0.352,0.516,0.843,1.687,1.476,3.467c0.352,1.077,0.539,2.014,0.539,2.764
				c0,0.258-0.094,0.468-0.234,0.608c-0.211,0.188-0.492,0.305-0.867,0.305c-0.257,0-0.445-0.047-0.539-0.141
				c-0.117-0.07-0.211-0.188-0.281-0.328c-0.117-0.374-0.234-0.772-0.375-1.194c-2.038,0.703-3.982,1.055-5.855,1.102
				c-0.469-0.023-0.796-0.141-1.031-0.328c-0.234-0.211-0.328-0.516-0.328-0.961c0-0.304,0.07-0.585,0.234-0.819
				c0.188-0.234,0.468-0.352,0.843-0.352c0.234,0,0.445-0.023,0.679-0.047c1.195-2.646,2.038-5.434,2.53-8.385
				c0.141-0.609,0.492-0.914,1.007-0.914C117.388,172.582,117.669,172.676,117.95,172.816z M124.251,164.9
				c0.281,0.14,0.421,0.421,0.421,0.819c-0.047,0.328-0.094,0.656-0.141,0.937c-0.14,0.539-0.281,1.078-0.421,1.64h2.436
				c0.188-0.796,0.328-1.64,0.421-2.482c0.164-0.609,0.539-0.913,1.101-0.913c0.328,0,0.632,0.093,0.937,0.257
				c0.281,0.188,0.422,0.516,0.422,0.938c0,0.094-0.023,0.188-0.023,0.281c-0.117,0.655-0.258,1.288-0.398,1.92h2.085
				c0.398,0,0.679,0.07,0.82,0.211c0.187,0.164,0.281,0.469,0.281,0.891c0,0.327-0.07,0.562-0.188,0.702
				c-0.187,0.258-0.492,0.375-0.913,0.375h-2.295v2.764h1.827c0.422,0,0.679,0.07,0.82,0.211c0.188,0.164,0.281,0.445,0.281,0.866
				c0,0.352-0.07,0.586-0.188,0.727c-0.164,0.258-0.468,0.375-0.914,0.375h-1.827v2.764h1.827c0.422,0,0.679,0.07,0.82,0.211
				c0.188,0.163,0.281,0.444,0.281,0.866c0,0.352-0.07,0.586-0.188,0.726c-0.164,0.258-0.468,0.375-0.914,0.375h-1.827v2.74h2.482
				c0.703,0,1.078,0.375,1.078,1.102c0,0.726-0.375,1.101-1.078,1.101h-7.963c-1.124,0-1.663-0.562-1.663-1.64v-8.924
				c-0.094,0.188-0.187,0.375-0.257,0.516c-0.234,0.304-0.539,0.444-0.914,0.444c-0.375,0-0.656-0.094-0.89-0.304
				c-0.211-0.141-0.305-0.375-0.305-0.703c0-0.211,0.094-0.445,0.234-0.727c1.358-2.717,2.366-5.598,3.045-8.596
				c0.141-0.375,0.398-0.608,0.75-0.655C123.689,164.713,124.017,164.783,124.251,164.9z M126.429,170.475h-2.483v2.764h2.483
				V170.475z M126.429,175.417h-2.483v2.764h2.483V175.417z M126.429,180.358h-2.483v2.39c0,0.233,0.094,0.351,0.281,0.351h2.202
				V180.358z"/>
			<path style="fill:#5C5D5D;" d="M151.942,177.22c-0.609,0.562-1.358,0.82-2.249,0.82c-0.913,0-1.663-0.258-2.249-0.82
				c-0.609-0.562-0.913-1.218-0.913-2.014c0-0.773,0.304-1.452,0.913-2.015c0.586-0.539,1.335-0.819,2.249-0.819
				c0.89,0,1.64,0.28,2.249,0.819c0.609,0.562,0.914,1.241,0.914,2.015C152.855,176.002,152.551,176.658,151.942,177.22z
				 M150.349,174.503c-0.21-0.188-0.445-0.281-0.703-0.281c-0.257,0-0.492,0.094-0.703,0.281c-0.21,0.211-0.304,0.445-0.304,0.68
				c0,0.304,0.094,0.538,0.304,0.726c0.188,0.188,0.422,0.258,0.703,0.258c0.258,0,0.492-0.094,0.703-0.305
				c0.211-0.188,0.328-0.398,0.328-0.679C150.677,174.948,150.56,174.714,150.349,174.503z"/>
		</g>
	</g>
</g>
</svg>
