<?xml version="1.0" encoding="iso-8859-1"?>
<!-- Generator: Adobe Illustrator 16.0.0, SVG Export Plug-In . SVG Version: 6.00 Build 0)  -->
<!DOCTYPE svg PUBLIC "-//W3C//DTD SVG 1.1//EN" "http://www.w3.org/Graphics/SVG/1.1/DTD/svg11.dtd">
<svg version="1.1" xmlns="http://www.w3.org/2000/svg" xmlns:xlink="http://www.w3.org/1999/xlink" x="0px" y="0px" width="353px"
	 height="326px" viewBox="0 0 353 326" style="enable-background:new 0 0 353 326;" xml:space="preserve">
<g id="&#x5E95;&#x8272;">
	<radialGradient id="SVGID_1_" cx="176.5" cy="163" r="169.8842" gradientUnits="userSpaceOnUse">
		<stop  offset="0" style="stop-color:#FFFFFF;stop-opacity:0"/>
		<stop  offset="0.1071" style="stop-color:#E4E4E4;stop-opacity:0.0857"/>
		<stop  offset="0.249" style="stop-color:#C7C7C7;stop-opacity:0.1992"/>
		<stop  offset="0.4006" style="stop-color:#B0B0B0;stop-opacity:0.3205"/>
		<stop  offset="0.5645" style="stop-color:#A0A0A0;stop-opacity:0.4516"/>
		<stop  offset="0.7495" style="stop-color:#979797;stop-opacity:0.5996"/>
		<stop  offset="1" style="stop-color:#949494;stop-opacity:0.8"/>
	</radialGradient>
	<rect style="opacity:0.5;fill:url(#SVGID_1_);" width="353" height="326"/>
</g>
<g id="logo">
	<polygon style="fill:#987A38;" points="148.202,278.129 118.863,231.709 194.101,278.129 	"/>
	<polygon style="fill:#987A38;" points="242.907,58.348 217.927,62.393 218.604,49.93 242.521,56.498 	"/>
	<polygon style="fill:#987A38;" points="250.864,57.551 233.401,52.166 237.951,47.871 250.937,56.154 	"/>
	<g>
		<path style="fill:#987A38;" d="M114.775,223.795l-8.524-14.275c-2.621-3.979-1.924-9.84,1.564-13.092l58.898-54.877
			c3.49-3.25,6.06-2.031,5.736,2.727l-6.537,112.6L114.775,223.795"/>
		<path style="fill:#997A37;" d="M159.72,113.24c-9.254,0-25.953,15.654-39.951,38.188c-15.458,24.896-21.909,49.032-14.855,54.89
			c-0.773-3.496,0.27-7.436,2.902-9.89l52.372-48.796c6.984-16.592,8.508-29.999,2.848-33.515
			C162.082,113.525,160.969,113.24,159.72,113.24"/>
		<path style="fill:#624C33;" d="M160.187,147.632l-52.372,48.796c-2.632,2.454-3.675,6.394-2.902,9.89
			c0.194,0.161,0.397,0.308,0.611,0.44c0.952,0.592,2.067,0.877,3.316,0.877c9.253,0,25.958-15.645,39.955-38.182
			C153.451,161.949,157.289,154.518,160.187,147.632"/>
	</g>
	<polygon style="fill:#987A38;" points="153.347,114.217 152.176,114.41 146.643,104.328 149.29,96.553 	"/>
	<polygon style="fill:#987A38;" points="150.449,115.256 145.468,118.111 134.931,111.125 137.484,100.129 	"/>
	<g>
		<path style="fill:#997A37;" d="M218.128,50.396l-4.918,1.922l-5.568,25.943c2.213,1.673,2.974,4.748,1.664,7.303
			c-0.816,1.594-2.264,2.651-3.88,3.024l-1.387,6.465c2.131,2.247,2.725,5.682,1.232,8.595c-0.852,1.658-2.234,2.867-3.833,3.523
			l-1.926,8.973c3.084,3.137,3.971,8.012,1.853,12.141c-1.219,2.378-3.221,4.093-5.53,4.99l-26.87,125.193l27.023,17.996
			L218.128,50.396"/>
		<path style="fill:#997A37;" d="M204.119,77.075c-2.117,0-4.159,1.158-5.19,3.171c-1.469,2.869-0.339,6.377,2.529,7.848
			c0.852,0.438,1.76,0.645,2.656,0.645c0.443,0,0.884-0.051,1.312-0.149l2.217-10.327c-0.268-0.201-0.556-0.384-0.865-0.541
			C205.925,77.282,205.015,77.075,204.119,77.075"/>
		<path style="fill:#624C33;" d="M207.642,78.262l-2.217,10.327c1.616-0.373,3.064-1.431,3.88-3.024
			C210.616,83.01,209.855,79.935,207.642,78.262"/>
		<path style="fill:#997A37;" d="M198.586,92.709c-2.729,0-5.361,1.492-6.691,4.088c-1.893,3.691-0.433,8.221,3.26,10.113
			c1.097,0.562,2.266,0.828,3.418,0.828c0.986,0,1.959-0.195,2.863-0.566l2.601-12.118c-0.569-0.601-1.249-1.116-2.027-1.515
			C200.913,92.976,199.741,92.709,198.586,92.709"/>
		<path style="fill:#624C33;" d="M204.038,95.054l-2.601,12.118c1.599-0.656,2.982-1.865,3.833-3.523
			C206.763,100.735,206.169,97.301,204.038,95.054"/>
		<path style="fill:#997A37;" d="M192.042,113.011c-3.812,0-7.487,2.082-9.346,5.704c-2.641,5.156-0.602,11.479,4.553,14.119
			c1.531,0.786,3.164,1.158,4.775,1.158c1.309,0,2.603-0.246,3.812-0.717l3.677-17.131c-0.766-0.779-1.668-1.452-2.693-1.979
			C195.286,113.383,193.652,113.011,192.042,113.011"/>
		<path style="fill:#624C33;" d="M199.511,116.145l-3.677,17.131c2.309-0.897,4.311-2.612,5.53-4.99
			C203.482,124.156,202.596,119.281,199.511,116.145"/>
	</g>
</g>
</svg>
