<?xml version="1.0" encoding="utf-8"?>
<!-- Generator: Adobe Illustrator 16.0.0, SVG Export Plug-In . SVG Version: 6.00 Build 0)  -->
<!DOCTYPE svg PUBLIC "-//W3C//DTD SVG 1.1//EN" "http://www.w3.org/Graphics/SVG/1.1/DTD/svg11.dtd">
<svg version="1.1" id="圖層_1" xmlns="http://www.w3.org/2000/svg" xmlns:xlink="http://www.w3.org/1999/xlink" x="0px" y="0px"
	 width="353px" height="326px" viewBox="0 0 353 326" enable-background="new 0 0 353 326" xml:space="preserve">
<g id="底色">
	
		<radialGradient id="SVGID_1_" cx="60.5" cy="175.998" r="169.8842" gradientTransform="matrix(1 0 0 -1.0067 116 340.0861)" gradientUnits="userSpaceOnUse">
		<stop  offset="0" style="stop-color:#FFFFFF;stop-opacity:0"/>
		<stop  offset="0.1071" style="stop-color:#E4E4E4;stop-opacity:0.0857"/>
		<stop  offset="0.249" style="stop-color:#C7C7C7;stop-opacity:0.1992"/>
		<stop  offset="0.4006" style="stop-color:#B0B0B0;stop-opacity:0.3205"/>
		<stop  offset="0.5645" style="stop-color:#A0A0A0;stop-opacity:0.4516"/>
		<stop  offset="0.7495" style="stop-color:#979797;stop-opacity:0.5996"/>
		<stop  offset="1" style="stop-color:#949494;stop-opacity:0.8"/>
	</radialGradient>
	<rect y="-1.197" opacity="0.5" fill="url(#SVGID_1_)" enable-background="new    " width="353" height="328.197"/>
</g>
<g>
	<path fill="#C06C8E" d="M170.131,201.127c0,0-12.704-13.523-16.245-33.101c-4.791-25.408,8.33-51.307-3.956-66.926
		c-10.414-14.163-22.91-11.872-22.91-11.872s-0.625-26.657-27.907-28.948C71.833,57.99,60.679,82.526,61.095,89.606
		c0,0-19.044,2.33-25.5,20.241c-6.457,17.911,2.708,34.78,10.621,39.778c0,0-15.203,27.698,7.706,44.776
		c22.908,17.078,39.361-3.749,39.361-3.749s24.158,14.787,37.903-9.372c7.289-16.035-6.781-34.923-17.89-34.749
		c-6.603,0.104-4.782,2.51-13.529,2.51c-8.746,0-14.786-4.056-14.786-13.428c0-9.372,7.897-16.851,20.324-16.851
		c9.581,0,17.758,6.704,20.673,15.66c2.917,8.955,8.331,26.107,14.162,34.021C145.973,176.357,155.553,192.381,170.131,201.127z"/>
	<path fill="#C06C8E" d="M296.99,251.822c0,0-16.76,1.354-24.257-2.811c-7.498-4.168-9.511-8.794-14.925-11.918
		c-17.285-9.788-47.275-1.021-76.223-28.521c-20.727-20.27-23.062-46.954-23.062-55.84c0-8.885,3.887-39.155,27.492-45.542
		c0,0-6.109-26.937,20.828-36.933c26.936-9.997,44.152,14.996,44.152,14.996s27.77-22.494,53.873,5.276
		c26.104,27.771,2.777,51.096,2.777,51.096s23.604,22.215,4.442,50.541c-18.05,21.659-44.708,5.553-44.708,5.553
		s-28.99,20.283-50.65-4.154s-1.805-48.041,12.159-47.747c11.72,0.248,11.322,5.483,20.997,2.471
		c12.814-3.99,9.996-26.103-9.166-29.158c-19.161-3.054-42.209,11.386-42.209,47.763c0,36.378,28.502,42.65,51.828,52.648
		C273.667,229.54,267.681,248.469,296.99,251.822z"/>
</g>
</svg>
