<?xml version="1.0" encoding="iso-8859-1"?>
<!-- Generator: Adobe Illustrator 16.0.0, SVG Export Plug-In . SVG Version: 6.00 Build 0)  -->
<!DOCTYPE svg PUBLIC "-//W3C//DTD SVG 1.1//EN" "http://www.w3.org/Graphics/SVG/1.1/DTD/svg11.dtd">
<svg version="1.1" id="&#x5716;&#x5C64;_1" xmlns="http://www.w3.org/2000/svg" xmlns:xlink="http://www.w3.org/1999/xlink" x="0px"
	 y="0px" width="353px" height="326px" viewBox="0 0 353 326" style="enable-background:new 0 0 353 326;" xml:space="preserve">
<image style="overflow:visible;" width="736" height="680" xlink:href="8A3F7E80DF908098.jpg"  transform="matrix(0.48 0 0 0.48 -4.882812e-04 0)">
</image>
<g>
	<path style="fill:#FFFFFF;" d="M110.364,152.051h20.321v21.083h-2.263v-1.287h-15.794v1.287h-2.263V152.051z M128.422,154.124
		h-15.794v15.651h15.794V154.124z M119.298,159.984h-5.86v-2.073h5.956v-2.978h2.263v2.978h5.979v2.073h-5.884
		c1.048,2.827,3.137,5.154,6.266,6.981l-1.311,2c-2.716-1.683-4.741-3.946-6.075-6.79c-0.683,1.701-1.485,3.039-2.406,4.015
		c-0.921,0.977-2.144,1.87-3.669,2.679l-1.405-2c1.651-0.715,2.93-1.608,3.835-2.681S118.663,161.715,119.298,159.984z"/>
	<path style="fill:#FFFFFF;" d="M168.253,162.867c-0.095,2.906-0.258,5.109-0.488,6.61c-0.23,1.5-0.652,2.478-1.263,2.93
		c-0.612,0.453-1.696,0.679-3.252,0.679c-0.556,0-0.866-0.008-0.929-0.023l-0.715-2.168c0.54,0.063,1.263,0.096,2.168,0.096
		c0.73,0,1.243-0.215,1.537-0.643c0.294-0.43,0.544-2.287,0.75-5.576h-14.27c-1.303,1.7-2.414,2.979-3.335,3.836l-1.739-1.619
		c0.127,0,0.663-0.5,1.608-1.502c0.945-1,1.842-2.159,2.692-3.477c0.85-1.318,1.671-3.121,2.466-5.408h-5.884V154.6h2.835
		l-0.5-1.215l-0.667-1.286l1.978-0.477l0.19,0.381c0.302,0.62,0.619,1.398,0.953,2.335c0.016,0.063,0.047,0.151,0.095,0.262h1.5
		l0.31-1.477l0.238-1.811l2.144,0.143l-0.214,1.691l-0.31,1.453h9.458l-0.619,4.121h2.025l-0.62,4.146H168.253z M153.603,166.82
		c-0.08,0.334-0.151,0.621-0.214,0.859c-0.333,1.477-0.945,3.144-1.834,5.002l-2.12-1.072c0.841-1.366,1.58-3.136,2.215-5.312
		L153.603,166.82z M164.251,162.867l0.333-2.168h-10.41l-0.596,1.191c-0.223,0.413-0.421,0.738-0.596,0.977H164.251z
		 M154.889,172.467c-0.047-1.048-0.071-1.946-0.071-2.691c0-1.176-0.08-2.176-0.238-3.002l2.001-0.166l0.119,0.834
		c0.175,1.206,0.302,2.581,0.381,4.121c0,0.205,0.016,0.46,0.048,0.762L154.889,172.467z M162.845,158.721l0.357-2.12h-7.551
		l-0.333,1.119l-0.333,1H162.845z M158.962,171.252c-0.095-1.493-0.405-3.081-0.929-4.764l1.906-0.381
		c0.476,1.189,0.817,2.532,1.024,4.025c0.032,0.175,0.072,0.388,0.119,0.643L158.962,171.252z M162.703,169.895l-0.572-1.834
		c-0.27-0.811-0.524-1.47-0.763-1.979l1.692-0.547c0.095,0.206,0.174,0.381,0.238,0.523c0.35,0.747,0.699,1.621,1.048,2.621
		l0.191,0.572L162.703,169.895z"/>
	<path style="fill:#FFFFFF;" d="M200.794,162.818l-0.523,0.811c-0.158,0.222-0.286,0.39-0.381,0.5l-0.215,0.215h6.098v1.811h-21.938
		v-1.811h6.24l-0.428-0.643l-0.645-0.883h-2.715v-4.55h17.224v4.55H200.794z M196.054,151.217v1.311h8.934v1.787h-8.934v1.191h8.123
		v1.739h-18.532v-1.739h7.932v-1.191h-8.957v-1.787h8.957v-1.311H196.054z M185.977,167.25h17.772v5.885h-2.383v-0.978h-13.007
		v0.978h-2.383V167.25z M201.366,168.941h-13.007v1.525h13.007V168.941z M201.199,159.841h-12.602v1.406h12.602V159.841z
		 M191.504,162.818c0.143,0.143,0.357,0.422,0.643,0.834l0.477,0.691h4.384l0.238-0.238c0.333-0.334,0.635-0.691,0.905-1.072
		l0.143-0.215H191.504z"/>
	<path style="fill:#FFFFFF;" d="M232.717,170.537c1.351-1.349,2.291-3.08,2.823-5.193c0.532-2.112,0.798-3.907,0.798-5.384v-1.691
		h2.002v2.097c0,1.795,0.388,3.732,1.166,5.812c0.778,2.081,1.915,3.732,3.407,4.955l-1.286,2.002
		c-2.002-2.081-3.415-4.598-4.24-7.553c-0.651,2.987-2.002,5.504-4.051,7.553l-0.715-0.978h-7.908v0.978h-1.93v-8.029
		c-0.128,0.159-0.277,0.326-0.453,0.5l-0.619,0.549l-0.715-1.764c1.382-1.031,2.351-2.334,2.906-3.906l1.715,0.405l-0.477,0.905
		h2.787l-0.332-0.643c-0.096-0.206-0.255-0.437-0.477-0.691l0.953-0.238v-4.216h1.547v-1.382h-1.404v-1.715h1.404v-1.691h1.836
		v1.691h2.5v1.715h-2.5v1.382h1.834v3.382c1.317-2.636,2.238-5.352,2.764-8.147l1.977,0.238c-0.032,0.175-0.056,0.318-0.071,0.429
		c-0.064,0.35-0.135,0.683-0.214,1l-0.43,1.62h5.17c-0.334,3.685-0.977,6.479-1.93,8.385l-1.524-1.5
		c0.619-1.159,1.031-2.684,1.239-4.574c0-0.095,0.015-0.214,0.047-0.357h-3.668c-0.604,1.905-1.304,3.582-2.098,5.026l-1.215-1.119
		h-4.145l0.357,0.69l0.334,0.715h3.764v1.573h-3.645v1.334h3.406v1.406h-3.406v1.453h3.406v1.428h-3.406v1.549H232.717z
		 M227.07,156.006v4.383h-5.24v-4.383h2.049v-1.382h-2.668v-1.715h2.668v-1.691h1.834v1.691h1.596v1.715h-1.596v1.382H227.07z
		 M225.309,157.363h-1.787v1.668h1.787V157.363z M228.143,164.701v-1.334h-3.43v1.334H228.143z M228.143,167.561v-1.453h-3.43v1.453
		H228.143z M228.143,170.537v-1.549h-3.43v1.549H228.143z M231.598,157.363h-1.834v1.668h1.834V157.363z"/>
</g>
</svg>
