<?xml version="1.0" encoding="iso-8859-1"?>
<!-- Generator: Adobe Illustrator 16.0.0, SVG Export Plug-In . SVG Version: 6.00 Build 0)  -->
<!DOCTYPE svg PUBLIC "-//W3C//DTD SVG 1.1//EN" "http://www.w3.org/Graphics/SVG/1.1/DTD/svg11.dtd">
<svg version="1.1" id="&#x5716;&#x5C64;_1" xmlns="http://www.w3.org/2000/svg" xmlns:xlink="http://www.w3.org/1999/xlink" x="0px"
	 y="0px" width="353px" height="326px" viewBox="0 0 353 326" style="enable-background:new 0 0 353 326;" xml:space="preserve">
<image style="overflow:visible;" width="736" height="680" xlink:href="8A3F7E80DF90809B.jpg"  transform="matrix(0.48 0 0 0.48 -4.882812e-04 0)">
</image>
<g>
	<path style="fill:#FFFFFF;" d="M72.327,146.24h31.983v33.184h-3.562v-2.025H75.889v2.025h-3.562V146.24z M100.748,149.502H75.889
		v24.634h24.859V149.502z M86.388,158.726h-9.224v-3.262h9.374v-4.687H90.1v4.687h9.411v3.262H90.25
		c1.65,4.45,4.937,8.112,9.861,10.987l-2.062,3.148c-4.274-2.648-7.461-6.211-9.561-10.686c-1.075,2.676-2.337,4.782-3.787,6.319
		c-1.45,1.537-3.375,2.943-5.774,4.217l-2.212-3.148c2.599-1.125,4.612-2.531,6.037-4.219S85.388,161.451,86.388,158.726z"/>
	<path style="fill:#FFFFFF;" d="M163.44,163.264c-0.15,4.574-0.407,8.043-0.769,10.404c-0.363,2.361-1.025,3.9-1.987,4.611
		c-0.963,0.713-2.669,1.068-5.118,1.068c-0.875,0-1.363-0.012-1.462-0.037l-1.125-3.412c0.85,0.1,1.987,0.15,3.412,0.15
		c1.149,0,1.956-0.338,2.418-1.012c0.462-0.676,0.856-3.6,1.181-8.775h-22.459c-2.05,2.676-3.8,4.688-5.25,6.037l-2.737-2.549
		c0.2,0,1.043-0.787,2.531-2.363c1.487-1.574,2.899-3.398,4.237-5.473c1.337-2.075,2.63-4.912,3.881-8.512h-9.261v-3.15h4.462
		l-0.788-1.912l-1.05-2.024l3.112-0.75l0.3,0.6c0.475,0.975,0.975,2.2,1.5,3.675c0.024,0.1,0.075,0.238,0.15,0.412h2.362
		l0.488-2.325l0.375-2.85l3.375,0.225l-0.337,2.662l-0.488,2.287h14.886l-0.975,6.487h3.187l-0.975,6.525H163.44z M140.381,169.486
		c-0.125,0.525-0.238,0.977-0.337,1.352c-0.525,2.324-1.488,4.949-2.887,7.873l-3.337-1.688c1.324-2.15,2.487-4.936,3.487-8.361
		L140.381,169.486z M157.141,163.264l0.525-3.413h-16.385l-0.938,1.875c-0.35,0.65-0.663,1.162-0.938,1.538H157.141z
		 M142.405,178.373c-0.075-1.648-0.112-3.062-0.112-4.236c0-1.85-0.125-3.424-0.375-4.725l3.15-0.262l0.188,1.312
		c0.274,1.898,0.474,4.062,0.6,6.486c0,0.324,0.025,0.725,0.075,1.199L142.405,178.373z M154.929,156.739l0.562-3.337h-11.886
		l-0.525,1.762l-0.525,1.575H154.929z M148.817,176.461c-0.15-2.35-0.638-4.85-1.462-7.498l3-0.6
		c0.75,1.873,1.287,3.986,1.612,6.336c0.05,0.275,0.112,0.611,0.188,1.012L148.817,176.461z M154.704,174.324l-0.9-2.887
		c-0.425-1.275-0.825-2.312-1.2-3.113l2.663-0.861c0.15,0.324,0.274,0.6,0.375,0.824c0.55,1.176,1.1,2.551,1.65,4.125l0.3,0.9
		L154.704,174.324z"/>
	<path style="fill:#FFFFFF;" d="M214.658,163.188l-0.824,1.275c-0.25,0.35-0.451,0.613-0.6,0.787l-0.338,0.338h9.598v2.85h-34.531
		v-2.85h9.822l-0.674-1.012l-1.014-1.389h-4.273v-7.161h27.109v7.161H214.658z M207.197,144.928v2.062h14.061v2.812h-14.061v1.875
		h12.785v2.737h-29.17v-2.737h12.484v-1.875h-14.098v-2.812h14.098v-2.062H207.197z M191.336,170.162h27.973v9.262h-3.75v-1.537
		h-20.473v1.537h-3.75V170.162z M215.559,172.824h-20.473v2.4h20.473V172.824z M215.295,158.501h-19.834v2.212h19.834V158.501z
		 M200.035,163.188c0.225,0.225,0.562,0.664,1.012,1.312l0.75,1.088h6.9l0.375-0.375c0.523-0.525,0.998-1.088,1.424-1.688
		l0.225-0.338H200.035z"/>
	<path style="fill:#FFFFFF;" d="M264.902,175.336c2.125-2.123,3.605-4.848,4.443-8.174c0.838-3.324,1.256-6.149,1.256-8.474v-2.662
		h3.15v3.299c0,2.825,0.611,5.875,1.836,9.149c1.225,3.275,3.014,5.875,5.363,7.799l-2.025,3.15
		c-3.15-3.275-5.375-7.236-6.674-11.887c-1.025,4.701-3.15,8.662-6.375,11.887l-1.125-1.537h-12.447v1.537h-3.037v-12.637
		c-0.201,0.25-0.438,0.514-0.713,0.787l-0.975,0.863l-1.125-2.775c2.174-1.623,3.699-3.674,4.574-6.149l2.699,0.638l-0.75,1.425
		h4.387l-0.523-1.013c-0.15-0.324-0.4-0.687-0.75-1.087l1.5-0.375v-6.637h2.436v-2.175h-2.211v-2.7h2.211v-2.662h2.889v2.662h3.936
		v2.7h-3.936v2.175h2.887v5.324c2.074-4.149,3.523-8.423,4.35-12.823l3.111,0.375c-0.051,0.275-0.088,0.5-0.111,0.675
		c-0.102,0.55-0.213,1.075-0.338,1.575l-0.676,2.55h8.137c-0.525,5.799-1.537,10.199-3.037,13.198l-2.398-2.362
		c0.975-1.824,1.623-4.224,1.949-7.199c0-0.15,0.023-0.337,0.074-0.562h-5.773c-0.951,3-2.051,5.637-3.301,7.911l-1.912-1.762
		h-6.523l0.562,1.087l0.525,1.125h5.924v2.475h-5.736v2.1h5.361v2.213h-5.361v2.287h5.361v2.248h-5.361v2.438H264.902z
		 M256.016,152.464v6.899h-8.248v-6.899h3.225v-2.175h-4.199v-2.7h4.199v-2.662h2.887v2.662h2.512v2.7h-2.512v2.175H256.016z
		 M253.242,154.602h-2.812v2.625h2.812V154.602z M257.703,166.15v-2.1h-5.398v2.1H257.703z M257.703,170.65v-2.287h-5.398v2.287
		H257.703z M257.703,175.336v-2.438h-5.398v2.438H257.703z M263.141,154.602h-2.887v2.625h2.887V154.602z"/>
</g>
</svg>
