<?xml version="1.0" encoding="iso-8859-1"?>
<!-- Generator: Adobe Illustrator 16.0.0, SVG Export Plug-In . SVG Version: 6.00 Build 0)  -->
<!DOCTYPE svg PUBLIC "-//W3C//DTD SVG 1.1//EN" "http://www.w3.org/Graphics/SVG/1.1/DTD/svg11.dtd">
<svg version="1.1" id="&#x5716;&#x5C64;_1" xmlns="http://www.w3.org/2000/svg" xmlns:xlink="http://www.w3.org/1999/xlink" x="0px"
	 y="0px" width="769.5px" height="70.834px" viewBox="-3.074 -24.167 769.5 70.834"
	 style="enable-background:new -3.074 -24.167 769.5 70.834;" xml:space="preserve">
<g>
	<rect style="fill:#CCCCCC;" width="765" height="1"/>
</g>
<g>
	<rect x="153" style="fill:#CCCCCC;" width="1" height="7.969"/>
</g>
<g>
	<rect x="306" style="fill:#CCCCCC;" width="1" height="7.969"/>
</g>
<g>
	<rect x="458.008" style="fill:#CCCCCC;" width="1" height="8.5"/>
</g>
<g>
	<rect x="611" style="fill:#CCCCCC;" width="1" height="7.969"/>
</g>
<g>
	<path style="fill:#DA9B02;" d="M10.438-13.279c0-2.222,0-2.635-0.017-3.1c-0.034-0.5-0.172-0.654-0.655-0.792
		c-0.12-0.035-0.378-0.052-0.603-0.052c-0.155,0-0.258-0.052-0.258-0.155c0-0.103,0.121-0.138,0.345-0.138
		c0.792,0,1.756,0.035,2.048,0.035c0.758,0,1.757-0.035,2.273-0.035c2.738,0,3.221,1.412,3.221,2.188
		c0,1.136-0.844,2.014-1.705,2.565c1.24,0.396,2.79,1.447,2.79,3.168c0,1.566-1.24,3.186-4.029,3.186
		c-0.172,0-0.688-0.018-1.206-0.052c-0.517-0.018-1.05-0.035-1.292-0.035c-0.171,0-0.499,0.017-0.86,0.017
		c-0.361,0.018-0.74,0.035-1.05,0.035c-0.189,0-0.293-0.052-0.293-0.155c0-0.068,0.052-0.155,0.241-0.155
		c0.224,0,0.396-0.018,0.534-0.051c0.311-0.07,0.396-0.345,0.448-0.775c0.069-0.62,0.069-1.773,0.069-3.117V-13.279z M12.401-13.039
		c0,0.121,0.052,0.138,0.104,0.155c0.138,0.035,0.362,0.053,0.707,0.053c0.499,0,0.929-0.053,1.188-0.26
		c0.396-0.31,0.688-0.842,0.688-1.55c0-0.98-0.585-2.204-1.895-2.204c-0.206,0-0.499,0-0.654,0.035
		c-0.104,0.017-0.138,0.086-0.138,0.241V-13.039z M12.401-8.734c0,0.965,0.052,1.257,0.534,1.447
		c0.396,0.155,0.74,0.173,1.085,0.173c0.809,0,1.859-0.448,1.859-2.067c0-0.671-0.292-1.825-1.429-2.601
		c-0.31-0.223-0.724-0.378-1.309-0.378h-0.654c-0.052,0-0.086,0.017-0.086,0.104V-8.734z"/>
	<path style="fill:#DA9B02;" d="M20.764-13.279c0-2.222,0-2.635-0.018-3.1c-0.034-0.5-0.172-0.654-0.654-0.792
		c-0.121-0.035-0.379-0.052-0.603-0.052c-0.155,0-0.258-0.052-0.258-0.155c0-0.103,0.121-0.138,0.345-0.138
		c0.792,0,1.756,0.035,2.187,0.035c0.482,0,3.84,0.017,4.133,0c0.275-0.018,0.517-0.07,0.637-0.086
		c0.087-0.017,0.172-0.069,0.242-0.069c0.085,0,0.103,0.069,0.103,0.137c0,0.104-0.086,0.276-0.121,0.947
		c-0.017,0.155-0.052,0.792-0.086,0.964c-0.017,0.069-0.051,0.241-0.172,0.241c-0.104,0-0.121-0.068-0.121-0.189
		c0-0.104-0.017-0.362-0.103-0.534c-0.121-0.258-0.242-0.465-0.999-0.535c-0.258-0.033-2.066-0.068-2.376-0.068
		c-0.069,0-0.103,0.051-0.103,0.138v3.616c0,0.087,0.017,0.155,0.103,0.155c0.345,0,2.308,0,2.652-0.034
		c0.362-0.034,0.568-0.087,0.723-0.224c0.121-0.103,0.172-0.19,0.241-0.19c0.068,0,0.12,0.069,0.12,0.155s-0.034,0.328-0.12,1.067
		c-0.035,0.293-0.069,0.879-0.069,0.982c0,0.12-0.018,0.327-0.155,0.327c-0.103,0-0.138-0.052-0.138-0.12
		c-0.018-0.155-0.018-0.345-0.052-0.535c-0.085-0.292-0.275-0.516-0.844-0.567c-0.276-0.035-1.998-0.069-2.376-0.069
		c-0.069,0-0.086,0.069-0.086,0.155v1.171c0,0.499-0.017,1.739,0,2.169c0.034,0.999,0.5,1.223,2.049,1.223
		c0.396,0,1.033-0.016,1.429-0.189c0.379-0.171,0.551-0.482,0.654-1.085c0.035-0.155,0.069-0.224,0.172-0.224
		c0.121,0,0.137,0.19,0.137,0.345c0,0.327-0.12,1.325-0.207,1.618c-0.103,0.379-0.241,0.379-0.809,0.379
		c-1.136,0-2.049-0.018-2.789-0.052c-0.741-0.018-1.309-0.035-1.757-0.035c-0.172,0-0.5,0.017-0.861,0.017
		c-0.361,0.018-0.74,0.035-1.05,0.035c-0.189,0-0.293-0.052-0.293-0.155c0-0.068,0.052-0.155,0.241-0.155
		c0.225,0,0.396-0.018,0.534-0.051c0.31-0.07,0.396-0.345,0.448-0.775c0.069-0.62,0.069-1.773,0.069-3.117V-13.279z"/>
	<path style="fill:#DA9B02;" d="M39.924-7.425c0,0.396,0,0.414-0.189,0.517c-1.016,0.5-2.514,0.654-3.702,0.654
		c-3.72,0-7.009-1.688-7.009-5.735c0-2.34,1.257-3.977,2.652-4.786c1.447-0.844,2.807-0.947,4.081-0.947
		c1.05,0,2.376,0.171,2.686,0.241c0.31,0.052,0.844,0.137,1.206,0.155c0.172,0.017,0.207,0.069,0.207,0.172
		c0,0.173-0.103,0.569-0.103,2.411c0,0.225-0.086,0.328-0.207,0.328c-0.104,0-0.138-0.07-0.155-0.189
		c-0.034-0.327-0.121-0.792-0.517-1.206c-0.448-0.464-1.584-1.119-3.289-1.119c-0.827,0-1.877,0.017-2.928,0.861
		c-0.844,0.689-1.395,1.773-1.395,3.564c0,3.151,2.033,5.441,5.27,5.441c0.396,0,0.706,0,1.067-0.155
		c0.224-0.103,0.293-0.259,0.293-0.517v-1.344c0-0.723,0-1.273-0.018-1.721c-0.017-0.5-0.172-0.654-0.654-0.792
		c-0.121-0.034-0.379-0.052-0.585-0.052c-0.138,0-0.242-0.068-0.242-0.155c0-0.12,0.121-0.138,0.328-0.138
		c0.792,0,1.877,0.035,2.325,0.035c0.482,0,1.274-0.035,1.773-0.035c0.207,0,0.31,0.018,0.31,0.138c0,0.086-0.086,0.155-0.189,0.155
		c-0.121,0-0.241,0.018-0.414,0.052c-0.413,0.069-0.567,0.276-0.585,0.792c-0.018,0.448-0.018,1.033-0.018,1.756V-7.425z"/>
	<path style="fill:#DA9B02;" d="M44.153-13.279c0-2.222,0-2.635-0.018-3.1c-0.034-0.5-0.189-0.672-0.516-0.775
		c-0.172-0.052-0.362-0.068-0.551-0.068c-0.155,0-0.241-0.035-0.241-0.173c0-0.085,0.121-0.12,0.361-0.12
		c0.568,0,1.602,0.035,2.032,0.035c0.379,0,1.36-0.035,1.946-0.035c0.189,0,0.311,0.035,0.311,0.12c0,0.138-0.087,0.173-0.242,0.173
		s-0.275,0.017-0.448,0.052c-0.413,0.068-0.534,0.275-0.568,0.792c-0.035,0.465-0.035,0.878-0.035,3.1v2.582
		c0,1.412,0,2.583,0.069,3.203c0.052,0.396,0.155,0.62,0.603,0.689c0.207,0.033,0.551,0.051,0.775,0.051
		c0.172,0,0.241,0.087,0.241,0.155c0,0.104-0.121,0.155-0.293,0.155c-0.999,0-2.032-0.052-2.445-0.052
		c-0.345,0-1.378,0.052-1.98,0.052c-0.189,0-0.293-0.052-0.293-0.155c0-0.068,0.052-0.155,0.241-0.155
		c0.224,0,0.396-0.018,0.534-0.051c0.31-0.07,0.396-0.276,0.448-0.706c0.069-0.603,0.069-1.774,0.069-3.186V-13.279z"/>
	<path style="fill:#DA9B02;" d="M52.104-8.441c0.034,1.137,0.224,1.481,0.516,1.584c0.259,0.085,0.551,0.103,0.792,0.103
		c0.172,0,0.258,0.069,0.258,0.155c0,0.12-0.137,0.155-0.344,0.155c-0.982,0-1.688-0.052-1.963-0.052
		c-0.137,0-0.861,0.052-1.635,0.052c-0.207,0-0.345-0.017-0.345-0.155c0-0.086,0.103-0.155,0.241-0.155
		c0.207,0,0.482-0.018,0.688-0.069c0.396-0.104,0.448-0.498,0.465-1.773l0.137-8.678c0-0.292,0.104-0.499,0.259-0.499
		c0.189,0,0.396,0.223,0.654,0.481c0.189,0.189,2.462,2.515,4.667,4.667c1.033,1.016,3.048,3.081,3.272,3.288h0.068l-0.155-6.509
		c-0.017-0.896-0.155-1.154-0.516-1.291c-0.224-0.086-0.586-0.086-0.792-0.086c-0.19,0-0.242-0.069-0.242-0.155
		c0-0.121,0.156-0.138,0.379-0.138c0.792,0,1.602,0.035,1.929,0.035c0.172,0,0.74-0.035,1.481-0.035
		c0.206,0,0.344,0.017,0.344,0.138c0,0.086-0.086,0.155-0.258,0.155c-0.155,0-0.276,0-0.465,0.052
		c-0.414,0.12-0.534,0.378-0.551,1.205l-0.172,9.229c0,0.328-0.121,0.464-0.241,0.464c-0.258,0-0.465-0.155-0.62-0.31
		c-0.947-0.877-2.841-2.686-4.425-4.218c-1.653-1.585-3.254-3.358-3.547-3.616h-0.052L52.104-8.441z"/>
	<path style="fill:#DA9B02;" d="M66.578-8.441c0.034,1.137,0.224,1.481,0.516,1.584c0.259,0.085,0.551,0.103,0.792,0.103
		c0.172,0,0.258,0.069,0.258,0.155c0,0.12-0.137,0.155-0.344,0.155c-0.982,0-1.688-0.052-1.963-0.052
		c-0.137,0-0.861,0.052-1.635,0.052c-0.207,0-0.345-0.017-0.345-0.155c0-0.086,0.103-0.155,0.241-0.155
		c0.207,0,0.482-0.018,0.688-0.069c0.396-0.104,0.448-0.498,0.465-1.773l0.137-8.678c0-0.292,0.104-0.499,0.259-0.499
		c0.189,0,0.396,0.223,0.654,0.481c0.189,0.189,2.462,2.515,4.666,4.667c1.033,1.016,3.048,3.081,3.272,3.288h0.069l-0.156-6.509
		c-0.017-0.896-0.155-1.154-0.516-1.291c-0.224-0.086-0.586-0.086-0.792-0.086c-0.189,0-0.242-0.069-0.242-0.155
		c0-0.121,0.156-0.138,0.379-0.138c0.792,0,1.601,0.035,1.929,0.035c0.172,0,0.74-0.035,1.481-0.035
		c0.206,0,0.344,0.017,0.344,0.138c0,0.086-0.086,0.155-0.258,0.155c-0.155,0-0.276,0-0.465,0.052
		c-0.414,0.12-0.534,0.378-0.551,1.205l-0.172,9.229c0,0.328-0.121,0.464-0.242,0.464c-0.258,0-0.465-0.155-0.62-0.31
		c-0.947-0.877-2.841-2.686-4.425-4.218c-1.653-1.585-3.255-3.358-3.548-3.616h-0.052L66.578-8.441z"/>
	<path style="fill:#DA9B02;" d="M80.104-13.279c0-2.222,0-2.635-0.018-3.1c-0.034-0.5-0.172-0.654-0.654-0.792
		c-0.121-0.035-0.379-0.052-0.603-0.052c-0.155,0-0.258-0.052-0.258-0.155c0-0.103,0.121-0.138,0.345-0.138
		c0.792,0,1.756,0.035,2.187,0.035c0.482,0,3.84,0.017,4.133,0c0.275-0.018,0.517-0.07,0.637-0.086
		c0.087-0.017,0.172-0.069,0.242-0.069c0.085,0,0.103,0.069,0.103,0.137c0,0.104-0.086,0.276-0.121,0.947
		c-0.017,0.155-0.052,0.792-0.086,0.964c-0.018,0.069-0.051,0.241-0.172,0.241c-0.104,0-0.121-0.068-0.121-0.189
		c0-0.104-0.017-0.362-0.103-0.534c-0.121-0.258-0.242-0.465-0.999-0.535c-0.258-0.033-2.066-0.068-2.376-0.068
		c-0.069,0-0.103,0.051-0.103,0.138v3.616c0,0.087,0.017,0.155,0.103,0.155c0.345,0,2.307,0,2.652-0.034
		c0.362-0.034,0.569-0.087,0.724-0.224c0.12-0.103,0.172-0.19,0.241-0.19c0.068,0,0.12,0.069,0.12,0.155s-0.034,0.328-0.12,1.067
		c-0.035,0.293-0.069,0.879-0.069,0.982c0,0.12-0.017,0.327-0.155,0.327c-0.103,0-0.138-0.052-0.138-0.12
		c-0.017-0.155-0.017-0.345-0.052-0.535c-0.085-0.292-0.275-0.516-0.844-0.567c-0.275-0.035-1.997-0.069-2.376-0.069
		c-0.069,0-0.086,0.069-0.086,0.155v1.171c0,0.499-0.018,1.739,0,2.169c0.034,0.999,0.5,1.223,2.049,1.223
		c0.396,0,1.033-0.016,1.429-0.189c0.378-0.171,0.551-0.482,0.654-1.085c0.035-0.155,0.069-0.224,0.172-0.224
		c0.121,0,0.138,0.19,0.138,0.345c0,0.327-0.12,1.325-0.207,1.618c-0.104,0.379-0.241,0.379-0.809,0.379
		c-1.136,0-2.049-0.018-2.79-0.052c-0.74-0.018-1.309-0.035-1.757-0.035c-0.171,0-0.5,0.017-0.861,0.017
		c-0.361,0.018-0.741,0.035-1.05,0.035c-0.189,0-0.293-0.052-0.293-0.155c0-0.068,0.052-0.155,0.241-0.155
		c0.224,0,0.396-0.018,0.534-0.051c0.311-0.07,0.396-0.345,0.448-0.775c0.069-0.62,0.069-1.773,0.069-3.117V-13.279z"/>
	<path style="fill:#DA9B02;" d="M89.673-13.279c0-2.222,0-2.635-0.018-3.1c-0.034-0.5-0.172-0.654-0.654-0.792
		c-0.12-0.035-0.378-0.052-0.603-0.052c-0.155,0-0.258-0.052-0.258-0.155c0-0.103,0.121-0.138,0.345-0.138
		c0.792,0,1.756,0.035,2.065,0.035c0.517,0,1.895-0.035,2.359-0.035c0.964,0,2.066,0.086,2.876,0.62
		c0.43,0.292,1.067,1.034,1.067,2.016c0,1.084-0.62,2.049-2.101,3.236c1.343,1.653,2.41,2.98,3.323,3.892
		c0.844,0.844,1.377,0.913,1.618,0.964c0.155,0.035,0.242,0.035,0.362,0.035c0.121,0,0.189,0.087,0.189,0.155
		c0,0.12-0.104,0.155-0.293,0.155h-1.446c-0.844,0-1.257-0.086-1.653-0.293c-0.654-0.327-1.223-1.016-2.066-2.152
		c-0.603-0.792-1.24-1.773-1.429-1.998c-0.086-0.085-0.172-0.103-0.276-0.103l-1.36-0.034c-0.069,0-0.121,0.034-0.121,0.12v0.207
		c0,1.36,0.018,2.497,0.085,3.117c0.052,0.431,0.121,0.706,0.586,0.775c0.224,0.033,0.551,0.051,0.74,0.051
		c0.121,0,0.19,0.087,0.19,0.155c0,0.104-0.121,0.155-0.31,0.155c-0.878,0-2.135-0.052-2.359-0.052
		c-0.292,0-1.257,0.052-1.859,0.052c-0.189,0-0.293-0.052-0.293-0.155c0-0.068,0.051-0.155,0.241-0.155
		c0.224,0,0.396-0.018,0.533-0.051c0.311-0.07,0.396-0.345,0.448-0.775c0.069-0.62,0.069-1.773,0.069-3.117V-13.279z M91.602-12.144
		c0,0.155,0.034,0.207,0.137,0.258c0.328,0.103,0.775,0.138,1.154,0.138c0.603,0,0.81-0.052,1.067-0.242
		c0.465-0.327,0.981-0.963,0.981-2.169c0-2.065-1.412-2.6-2.308-2.6c-0.378,0-0.74,0.017-0.896,0.052
		c-0.103,0.035-0.137,0.086-0.137,0.207V-12.144z"/>
</g>
<g>
	<path style="fill:#DA9B02;" d="M697.088-13.125c0-2.222,0-2.635-0.019-3.1c-0.034-0.5-0.171-0.654-0.653-0.792
		c-0.12-0.035-0.38-0.052-0.604-0.052c-0.154,0-0.258-0.051-0.258-0.155c0-0.103,0.121-0.138,0.345-0.138
		c0.792,0,1.756,0.035,2.188,0.035c0.481,0,3.839,0.017,4.132,0c0.275-0.018,0.517-0.07,0.637-0.086
		c0.086-0.017,0.172-0.068,0.242-0.068c0.085,0,0.104,0.068,0.104,0.137c0,0.103-0.087,0.276-0.122,0.947
		c-0.017,0.155-0.052,0.792-0.085,0.964c-0.019,0.069-0.053,0.241-0.173,0.241c-0.104,0-0.12-0.068-0.12-0.188
		c0-0.104-0.018-0.362-0.104-0.534c-0.121-0.258-0.242-0.464-0.999-0.534c-0.259-0.034-2.066-0.068-2.376-0.068
		c-0.068,0-0.104,0.051-0.104,0.138v3.616c0,0.086,0.017,0.155,0.104,0.155c0.344,0,2.307,0,2.651-0.035
		c0.361-0.034,0.567-0.086,0.724-0.224c0.12-0.103,0.172-0.189,0.24-0.189c0.07,0,0.12,0.068,0.12,0.155s-0.034,0.328-0.12,1.067
		c-0.033,0.293-0.068,0.879-0.068,0.982c0,0.12-0.018,0.327-0.155,0.327c-0.103,0-0.138-0.052-0.138-0.12
		c-0.017-0.155-0.017-0.344-0.051-0.534c-0.088-0.292-0.277-0.517-0.845-0.568c-0.274-0.035-1.997-0.068-2.375-0.068
		c-0.07,0-0.087,0.068-0.087,0.155v1.17c0,0.5-0.017,1.739,0,2.169c0.035,0.999,0.499,1.223,2.049,1.223
		c0.396,0,1.034-0.017,1.43-0.189c0.378-0.172,0.55-0.482,0.653-1.085c0.034-0.155,0.07-0.223,0.173-0.223
		c0.12,0,0.138,0.189,0.138,0.344c0,0.327-0.12,1.325-0.208,1.618c-0.103,0.38-0.239,0.38-0.809,0.38
		c-1.136,0-2.048-0.018-2.789-0.052c-0.74-0.018-1.309-0.035-1.756-0.035c-0.173,0-0.499,0.017-0.862,0.017
		c-0.359,0.018-0.739,0.035-1.049,0.035c-0.189,0-0.293-0.051-0.293-0.155c0-0.068,0.052-0.155,0.24-0.155
		c0.225,0,0.396-0.018,0.534-0.052c0.312-0.069,0.396-0.344,0.447-0.775c0.07-0.619,0.07-1.773,0.07-3.116V-13.125z"/>
	<path style="fill:#DA9B02;" d="M711.15-12.437c0.482,0.724,2.996,4.701,3.375,5.166c0.258,0.328,0.499,0.482,0.827,0.586
		c0.206,0.068,0.446,0.086,0.584,0.086c0.104,0,0.189,0.068,0.189,0.155c0,0.104-0.121,0.155-0.293,0.155h-0.448
		c-0.36,0-1.566,0-2.806-0.035c-0.396-0.017-0.533-0.052-0.533-0.155c0-0.085,0.068-0.155,0.207-0.189
		c0.067-0.017,0.171-0.121,0.05-0.31c-0.877-1.429-1.705-2.807-2.393-3.926l-2.222,3.444c-0.154,0.24-0.24,0.465-0.224,0.62
		c0.018,0.138,0.155,0.223,0.293,0.223c0.086,0,0.206,0.018,0.326,0.018c0.086,0,0.189,0.086,0.189,0.171
		c0,0.104-0.104,0.138-0.31,0.138h-0.275c-0.086,0-1.085-0.051-1.463-0.051c-0.292,0-1.033,0.051-1.274,0.051h-0.259
		c-0.154,0-0.224-0.051-0.224-0.138c0-0.085,0.086-0.171,0.206-0.171c0.104,0,0.327-0.018,0.553-0.069
		c0.446-0.121,0.688-0.362,1.205-1.067l2.96-3.995l-2.668-4.167c-0.379-0.585-0.688-0.896-1.223-1.067
		c-0.241-0.068-0.481-0.104-0.638-0.104c-0.086,0-0.154-0.069-0.154-0.173c0-0.085,0.121-0.12,0.311-0.12
		c0.36,0,1.583,0.035,2.308,0.035c0.206,0,1.136-0.035,1.705-0.035c0.206,0,0.31,0.035,0.31,0.138c0,0.104-0.104,0.155-0.241,0.155
		c-0.087,0-0.242,0.017-0.362,0.052c-0.138,0.035-0.206,0.12-0.206,0.207s0.068,0.275,0.154,0.431
		c0.672,1.17,1.291,2.186,1.894,3.185c0.449-0.654,1.792-2.634,2.05-3.048c0.121-0.207,0.172-0.413,0.172-0.533
		c0-0.104-0.104-0.207-0.258-0.242c-0.156-0.052-0.362-0.052-0.482-0.052c-0.087,0-0.189-0.051-0.189-0.155
		c0-0.103,0.103-0.138,0.326-0.138c0.586,0,1.292,0.035,1.585,0.035s0.913-0.035,1.481-0.035c0.173,0,0.275,0.035,0.275,0.138
		c0,0.085-0.086,0.155-0.242,0.155c-0.153,0-0.344,0.035-0.55,0.087c-0.346,0.085-0.621,0.481-1.085,1.119L711.15-12.437z"/>
	<path style="fill:#DA9B02;" d="M718.187-13.125c0-2.222,0-2.635-0.018-3.1c-0.034-0.5-0.172-0.654-0.653-0.792
		c-0.122-0.035-0.38-0.052-0.604-0.052c-0.156,0-0.259-0.051-0.259-0.155c0-0.103,0.121-0.138,0.346-0.138
		c0.792,0,1.755,0.035,2.186,0.035c0.621,0,1.826-0.035,2.515-0.035c1.895,0,2.582,0.62,2.824,0.826
		c0.327,0.311,0.757,0.965,0.757,1.758c0,2.066-1.651,3.546-3.806,3.546c-0.067,0-0.378,0-0.446-0.017
		c-0.087,0-0.189-0.051-0.189-0.154c0-0.121,0.172-0.19,0.498-0.19c0.845,0,2.032-0.877,2.032-2.376c0-0.482-0.051-1.446-0.896-2.17
		c-0.55-0.481-1.171-0.551-1.515-0.551c-0.224,0-0.518,0.018-0.653,0.07c-0.087,0.033-0.122,0.12-0.122,0.275v5.803
		c0,1.343,0,2.497,0.068,3.134c0.054,0.413,0.139,0.688,0.587,0.757c0.223,0.034,0.55,0.052,0.775,0.052
		c0.172,0,0.239,0.086,0.239,0.155c0,0.104-0.119,0.155-0.275,0.155c-1.017,0-2.084-0.051-2.479-0.051
		c-0.345,0-1.308,0.051-1.911,0.051c-0.188,0-0.293-0.051-0.293-0.155c0-0.068,0.052-0.155,0.241-0.155
		c0.224,0,0.396-0.018,0.533-0.052c0.311-0.069,0.396-0.344,0.448-0.775c0.069-0.619,0.069-1.773,0.069-3.116V-13.125z"/>
	<path style="fill:#DA9B02;" d="M728.444-13.125c0-2.222,0-2.635-0.019-3.1c-0.034-0.5-0.171-0.654-0.653-0.792
		c-0.12-0.035-0.38-0.052-0.603-0.052c-0.155,0-0.259-0.051-0.259-0.155c0-0.103,0.122-0.138,0.345-0.138
		c0.792,0,1.757,0.035,2.188,0.035c0.481,0,3.839,0.017,4.133,0c0.275-0.018,0.516-0.07,0.636-0.086
		c0.086-0.017,0.173-0.068,0.242-0.068c0.085,0,0.104,0.068,0.104,0.137c0,0.103-0.087,0.276-0.122,0.947
		c-0.016,0.155-0.051,0.792-0.084,0.964c-0.019,0.069-0.054,0.241-0.174,0.241c-0.103,0-0.12-0.068-0.12-0.188
		c0-0.104-0.018-0.362-0.104-0.534c-0.12-0.258-0.242-0.464-0.998-0.534c-0.26-0.034-2.067-0.068-2.378-0.068
		c-0.067,0-0.103,0.051-0.103,0.138v3.616c0,0.086,0.017,0.155,0.103,0.155c0.346,0,2.309,0,2.652-0.035
		c0.361-0.034,0.568-0.086,0.724-0.224c0.121-0.103,0.172-0.189,0.241-0.189c0.068,0,0.12,0.068,0.12,0.155s-0.034,0.328-0.12,1.067
		c-0.034,0.293-0.069,0.879-0.069,0.982c0,0.12-0.018,0.327-0.154,0.327c-0.104,0-0.138-0.052-0.138-0.12
		c-0.018-0.155-0.018-0.344-0.052-0.534c-0.087-0.292-0.276-0.517-0.844-0.568c-0.275-0.035-1.997-0.068-2.376-0.068
		c-0.07,0-0.087,0.068-0.087,0.155v1.17c0,0.5-0.017,1.739,0,2.169c0.035,0.999,0.5,1.223,2.05,1.223
		c0.396,0,1.033-0.017,1.429-0.189c0.379-0.172,0.551-0.482,0.653-1.085c0.035-0.155,0.07-0.223,0.174-0.223
		c0.119,0,0.138,0.189,0.138,0.344c0,0.327-0.122,1.325-0.208,1.618c-0.104,0.38-0.24,0.38-0.809,0.38
		c-1.136,0-2.049-0.018-2.789-0.052c-0.741-0.018-1.311-0.035-1.756-0.035c-0.174,0-0.5,0.017-0.862,0.017
		c-0.36,0.018-0.739,0.035-1.049,0.035c-0.19,0-0.294-0.051-0.294-0.155c0-0.068,0.052-0.155,0.24-0.155
		c0.225,0,0.396-0.018,0.535-0.052c0.311-0.069,0.396-0.344,0.447-0.775c0.069-0.619,0.069-1.773,0.069-3.116V-13.125z"/>
	<path style="fill:#DA9B02;" d="M738.013-13.125c0-2.222,0-2.635-0.018-3.1c-0.034-0.5-0.172-0.654-0.655-0.792
		c-0.12-0.035-0.378-0.052-0.603-0.052c-0.153,0-0.257-0.051-0.257-0.155c0-0.103,0.12-0.138,0.344-0.138
		c0.792,0,1.757,0.035,2.066,0.035c0.517,0,1.895-0.035,2.358-0.035c0.965,0,2.066,0.087,2.876,0.62
		c0.43,0.293,1.068,1.034,1.068,2.016c0,1.084-0.621,2.049-2.101,3.237c1.342,1.653,2.411,2.979,3.323,3.892
		c0.843,0.844,1.377,0.912,1.618,0.963c0.155,0.035,0.241,0.035,0.362,0.035c0.12,0,0.188,0.086,0.188,0.155
		c0,0.12-0.104,0.155-0.293,0.155h-1.446c-0.843,0-1.257-0.086-1.652-0.293c-0.655-0.327-1.223-1.015-2.066-2.152
		c-0.604-0.792-1.239-1.773-1.429-1.998c-0.087-0.085-0.174-0.103-0.276-0.103l-1.36-0.034c-0.068,0-0.121,0.034-0.121,0.12v0.207
		c0,1.36,0.018,2.497,0.087,3.116c0.051,0.431,0.12,0.706,0.586,0.775c0.223,0.034,0.55,0.052,0.739,0.052
		c0.12,0,0.189,0.086,0.189,0.155c0,0.104-0.12,0.155-0.31,0.155c-0.878,0-2.135-0.051-2.359-0.051
		c-0.292,0-1.257,0.051-1.859,0.051c-0.189,0-0.293-0.051-0.293-0.155c0-0.068,0.052-0.155,0.241-0.155
		c0.225,0,0.396-0.018,0.534-0.052c0.31-0.069,0.396-0.344,0.447-0.775c0.069-0.619,0.069-1.773,0.069-3.116V-13.125z
		 M739.94-11.989c0,0.155,0.035,0.207,0.138,0.258c0.328,0.103,0.774,0.138,1.154,0.138c0.603,0,0.809-0.052,1.068-0.241
		c0.465-0.327,0.98-0.964,0.98-2.169c0-2.066-1.411-2.6-2.307-2.6c-0.379,0-0.741,0.017-0.896,0.052
		c-0.103,0.035-0.138,0.086-0.138,0.207V-11.989z"/>
	<path style="fill:#DA9B02;" d="M751.18-16.466l-2.256,0.052c-0.878,0.017-1.24,0.12-1.464,0.448
		c-0.154,0.207-0.224,0.396-0.258,0.5c-0.035,0.12-0.068,0.19-0.172,0.19s-0.14-0.087-0.14-0.242c0-0.241,0.294-1.653,0.328-1.774
		c0.035-0.188,0.087-0.275,0.172-0.275c0.121,0,0.275,0.12,0.655,0.171c0.447,0.052,1.016,0.07,1.515,0.07h6.147
		c0.482,0,0.81-0.035,1.033-0.07c0.241-0.033,0.361-0.068,0.414-0.068c0.104,0,0.12,0.086,0.12,0.31c0,0.31-0.034,1.395-0.034,1.774
		c-0.018,0.155-0.052,0.24-0.139,0.24c-0.12,0-0.153-0.068-0.171-0.293l-0.019-0.155c-0.034-0.378-0.43-0.826-1.79-0.843
		l-1.911-0.035v5.924c0,1.343,0.017,2.497,0.085,3.134c0.053,0.413,0.139,0.688,0.586,0.757c0.207,0.034,0.551,0.052,0.775,0.052
		c0.172,0,0.24,0.086,0.24,0.155c0,0.104-0.12,0.155-0.293,0.155c-0.999,0-2.015-0.051-2.444-0.051c-0.344,0-1.378,0.051-1.98,0.051
		c-0.19,0-0.293-0.051-0.293-0.155c0-0.068,0.053-0.155,0.241-0.155c0.225,0,0.414-0.018,0.534-0.052
		c0.311-0.069,0.396-0.344,0.448-0.775c0.068-0.619,0.068-1.773,0.068-3.116V-16.466z"/>
</g>
<polyline style="fill:none;stroke:#CCCCCC;stroke-width:2;stroke-linecap:round;stroke-linejoin:round;stroke-miterlimit:10;" points="
	760.775,4.725 765,0.5 760.775,-3.725 "/>
<polyline style="fill:none;stroke:#CCCCCC;stroke-width:2;stroke-linecap:round;stroke-linejoin:round;stroke-miterlimit:10;" points="
	4.225,4.725 0,0.5 4.225,-3.725 "/>
</svg>
